<?xml version="1.0" encoding="UTF-8" standalone="no"?>
<!DOCTYPE svg PUBLIC "-//W3C//DTD SVG 1.1//EN" "http://www.w3.org/Graphics/SVG/1.1/DTD/svg11.dtd">
<svg width="100%" height="100%" viewBox="0 0 2481 3508" version="1.1" xmlns="http://www.w3.org/2000/svg" xmlns:xlink="http://www.w3.org/1999/xlink" xml:space="preserve" xmlns:serif="http://www.serif.com/" style="fill-rule:evenodd;clip-rule:evenodd;stroke-linejoin:round;stroke-miterlimit:2;">
    <rect id="Artboard1" x="0" y="0" width="2480.315" height="3507.874" style="fill:white;"/>
    <g id="Artboard11" serif:id="Artboard1">
        <g transform="matrix(1,0,0,0.272229,0,-12.515647)">
            <rect x="0" y="45.975" width="2480.315" height="128.729" style="fill:rgb(32,112,210);"/>
        </g>
        <g transform="matrix(1,0,0,1,-29.56036,-94.17267)">
            <path d="M247.003,404.041L247.003,313.098L270.196,313.098L287.896,360.889C288.751,363.412 289.829,366.698 291.131,370.746C292.433,374.795 293.613,378.589 294.671,382.129C295.729,378.589 296.899,374.795 298.18,370.746C299.462,366.698 300.53,363.412 301.385,360.889L318.78,313.098L342.095,313.098L342.095,404.041L326.226,404.041L326.226,357.654C326.226,354.44 326.287,350.493 326.409,345.813C326.531,341.134 326.653,336.475 326.775,331.836C325.148,336.963 323.602,341.856 322.137,346.515C320.672,351.174 319.451,354.887 318.475,357.654L301.141,404.041L287.957,404.041L270.501,357.654C269.565,355.009 268.375,351.479 266.93,347.065C265.486,342.65 263.97,338.001 262.383,333.118C262.505,337.594 262.617,342.039 262.719,346.454C262.821,350.869 262.872,354.602 262.872,357.654L262.872,404.041L247.003,404.041Z" style="fill-rule:nonzero;"/>
            <path d="M356.5,404.041L356.5,339.588L371.88,339.588L371.88,404.041L356.5,404.041ZM364.19,330.005C361.545,330.005 359.348,329.161 357.598,327.472C355.849,325.784 354.974,323.698 354.974,321.216C354.974,318.734 355.849,316.659 357.598,314.991C359.348,313.322 361.545,312.488 364.19,312.488C366.794,312.488 368.971,313.322 370.721,314.991C372.47,316.659 373.345,318.734 373.345,321.216C373.345,323.698 372.47,325.784 370.721,327.472C368.971,329.161 366.794,330.005 364.19,330.005Z" style="fill-rule:nonzero;"/>
            <rect x="385.552" y="313.098" width="15.381" height="90.942" style="fill-rule:nonzero;"/>
            <path d="M443.047,405.506C436.618,405.506 431.044,404.061 426.324,401.172C421.604,398.283 417.972,394.306 415.429,389.24C412.886,384.174 411.614,378.386 411.614,371.875C411.614,365.324 412.927,359.516 415.551,354.45C418.176,349.384 421.807,345.396 426.446,342.487C431.085,339.578 436.415,338.123 442.437,338.123C448.622,338.123 454.034,339.547 458.672,342.395C463.311,345.244 466.912,349.18 469.476,354.206C472.039,359.231 473.321,365.039 473.321,371.631L473.321,375.843L426.69,375.843C426.893,381.092 428.44,385.323 431.329,388.538C434.218,391.752 438.246,393.36 443.414,393.36C447.279,393.36 450.473,392.515 452.996,390.827C455.519,389.138 457.228,386.91 458.123,384.143L472.527,384.143C471.714,388.335 469.933,392.037 467.187,395.252C464.44,398.466 460.992,400.979 456.841,402.79C452.691,404.6 448.093,405.506 443.047,405.506ZM426.812,365.223L458.55,365.223C458.062,360.625 456.404,356.993 453.576,354.328C450.748,351.663 447.116,350.33 442.681,350.33C438.205,350.33 434.574,351.663 431.786,354.328C428.999,356.993 427.341,360.625 426.812,365.223Z" style="fill-rule:nonzero;"/>
            <path d="M509.026,405.567C501.173,405.567 494.612,403.726 489.343,400.043C484.073,396.361 481.194,391.061 480.706,384.143L495.904,384.143C496.229,387.277 497.491,389.708 499.688,391.437C501.885,393.166 504.917,394.031 508.782,394.031C512.485,394.031 515.405,393.299 517.541,391.834C519.677,390.369 520.745,388.497 520.745,386.219C520.745,384.265 519.952,382.699 518.365,381.519C516.778,380.339 514.642,379.464 511.956,378.894L500.97,376.636C488.437,374.032 482.171,367.827 482.171,358.02C482.171,352.08 484.531,347.288 489.251,343.647C493.971,340.005 500.258,338.184 508.111,338.184C515.923,338.184 522.281,340.107 527.184,343.952C532.088,347.797 534.621,353.036 534.783,359.668L520.318,359.668C520.237,356.779 519.118,354.399 516.961,352.527C514.804,350.655 511.976,349.72 508.477,349.72C505.1,349.72 502.435,350.472 500.482,351.978C498.528,353.483 497.552,355.335 497.552,357.532C497.552,359.445 498.305,361.001 499.81,362.201C501.316,363.402 503.411,364.307 506.097,364.917L517.693,367.298C524.082,368.64 528.792,370.756 531.823,373.645C534.854,376.534 536.37,380.339 536.37,385.059C536.37,389.25 535.2,392.882 532.861,395.954C530.521,399.026 527.296,401.396 523.187,403.064C519.077,404.733 514.357,405.567 509.026,405.567Z" style="fill-rule:nonzero;"/>
            <path d="M582.086,339.588L582.086,351.978L568.963,351.978L568.963,385.547C568.963,387.867 569.431,389.464 570.367,390.338C571.303,391.213 573.012,391.651 575.494,391.651L582.086,391.651L582.086,404.041L572.808,404.041C566.257,404.041 561.405,402.718 558.251,400.074C555.098,397.429 553.521,393.339 553.521,387.806L553.521,351.978L542.291,351.978L542.291,339.588L553.521,339.588L553.521,322.01L568.963,322.01L568.963,339.588L582.086,339.588Z" style="fill-rule:nonzero;"/>
            <path d="M619.622,405.506C613.274,405.506 607.72,404.092 602.96,401.264C598.199,398.436 594.486,394.499 591.821,389.453C589.155,384.408 587.823,378.549 587.823,371.875C587.823,365.202 589.155,359.333 591.821,354.267C594.486,349.201 598.199,345.244 602.96,342.395C607.72,339.547 613.274,338.123 619.622,338.123C625.929,338.123 631.473,339.547 636.254,342.395C641.035,345.244 644.758,349.201 647.424,354.267C650.089,359.333 651.421,365.202 651.421,371.875C651.421,378.549 650.089,384.408 647.424,389.453C644.758,394.499 641.035,398.436 636.254,401.264C631.473,404.092 625.929,405.506 619.622,405.506ZM619.622,392.627C624.546,392.627 628.472,390.776 631.402,387.073C634.332,383.37 635.796,378.304 635.796,371.875C635.796,365.446 634.332,360.36 631.402,356.617C628.472,352.873 624.546,351.001 619.622,351.001C614.658,351.001 610.711,352.863 607.781,356.586C604.852,360.309 603.387,365.406 603.387,371.875C603.387,378.304 604.852,383.37 607.781,387.073C610.711,390.776 614.658,392.627 619.622,392.627Z" style="fill-rule:nonzero;"/>
            <path d="M677.422,367.603L677.422,404.041L662.042,404.041L662.042,339.588L677.178,339.588L677.178,349.475C681.654,342.029 688.246,338.306 696.954,338.306C703.708,338.306 709.232,340.483 713.525,344.837C717.818,349.191 719.964,355.498 719.964,363.758L719.964,404.041L704.522,404.041L704.522,366.199C704.522,361.479 703.383,357.898 701.104,355.457C698.825,353.015 695.631,351.795 691.522,351.795C687.493,351.795 684.136,353.056 681.451,355.579C678.765,358.102 677.422,362.11 677.422,367.603Z" style="fill-rule:nonzero;"/>
            <path d="M762.078,405.506C755.649,405.506 750.075,404.061 745.355,401.172C740.635,398.283 737.003,394.306 734.46,389.24C731.917,384.174 730.645,378.386 730.645,371.875C730.645,365.324 731.957,359.516 734.582,354.45C737.206,349.384 740.838,345.396 745.477,342.487C750.115,339.578 755.446,338.123 761.468,338.123C767.653,338.123 773.065,339.547 777.703,342.395C782.342,345.244 785.943,349.18 788.506,354.206C791.07,359.231 792.352,365.039 792.352,371.631L792.352,375.843L745.721,375.843C745.924,381.092 747.47,385.323 750.359,388.538C753.248,391.752 757.277,393.36 762.444,393.36C766.31,393.36 769.504,392.515 772.027,390.827C774.55,389.138 776.259,386.91 777.154,384.143L791.558,384.143C790.744,388.335 788.964,392.037 786.218,395.252C783.471,398.466 780.023,400.979 775.872,402.79C771.722,404.6 767.124,405.506 762.078,405.506ZM745.843,365.223L777.581,365.223C777.093,360.625 775.435,356.993 772.607,354.328C769.779,351.663 766.147,350.33 761.712,350.33C757.236,350.33 753.604,351.663 750.817,354.328C748.03,356.993 746.372,360.625 745.843,365.223Z" style="fill-rule:nonzero;"/>
            <path d="M831.78,404.041L831.78,313.098L892.938,313.098L892.938,327.076L847.894,327.076L847.894,351.917L889.703,351.917L889.703,365.589L847.894,365.589L847.894,404.041L831.78,404.041Z" style="fill-rule:nonzero;"/>
            <path d="M901.177,404.041L901.177,339.588L916.009,339.588L916.009,350.269L916.192,350.269C917.372,346.607 919.234,343.809 921.777,341.877C924.32,339.944 927.667,338.977 931.817,338.977C932.875,338.977 933.821,339.008 934.655,339.069C935.489,339.13 936.211,339.181 936.822,339.222L936.822,352.893C936.252,352.812 935.276,352.71 933.892,352.588C932.509,352.466 931.064,352.405 929.559,352.405C925.897,352.405 922.814,353.667 920.312,356.189C917.809,358.712 916.558,362.496 916.558,367.542L916.558,404.041L901.177,404.041Z" style="fill-rule:nonzero;"/>
            <path d="M964.105,405.078C957.676,405.078 952.355,403.461 948.144,400.226C943.932,396.991 941.827,392.159 941.827,385.73C941.827,380.848 943.017,377.074 945.397,374.408C947.778,371.743 950.89,369.8 954.736,368.579C958.581,367.359 962.721,366.525 967.156,366.077C973.138,365.385 977.308,364.775 979.669,364.246C982.029,363.717 983.209,362.354 983.209,360.157L983.209,359.668C983.209,356.901 982.161,354.643 980.065,352.893C977.97,351.144 975.091,350.269 971.429,350.269C967.685,350.269 964.644,351.144 962.304,352.893C959.964,354.643 958.693,356.881 958.489,359.607L943.658,359.607C944.024,353.219 946.689,348.072 951.653,344.165C956.618,340.259 963.311,338.306 971.734,338.306C980.116,338.306 986.667,340.259 991.387,344.165C996.107,348.072 998.467,353.382 998.467,360.096L998.467,404.041L983.331,404.041L983.331,394.947L983.086,394.947C981.54,397.795 979.302,400.196 976.373,402.149C973.443,404.102 969.354,405.078 964.105,405.078ZM967.889,393.665C972.934,393.665 976.759,392.353 979.363,389.728C981.968,387.104 983.27,383.92 983.27,380.176L983.27,373.218C982.334,373.828 980.523,374.388 977.837,374.897C975.152,375.405 972.222,375.904 969.048,376.392C965.753,376.88 962.894,377.806 960.473,379.169C958.052,380.532 956.841,382.679 956.841,385.608C956.841,388.131 957.838,390.105 959.832,391.529C961.826,392.953 964.511,393.665 967.889,393.665Z" style="fill-rule:nonzero;"/>
            <path d="M1046.075,339.588L1046.075,351.978L1032.952,351.978L1032.952,385.547C1032.952,387.867 1033.42,389.464 1034.356,390.338C1035.292,391.213 1037.001,391.651 1039.483,391.651L1046.075,391.651L1046.075,404.041L1036.797,404.041C1030.246,404.041 1025.394,402.718 1022.241,400.074C1019.087,397.429 1017.51,393.339 1017.51,387.806L1017.51,351.978L1006.28,351.978L1006.28,339.588L1017.51,339.588L1017.51,322.01L1032.952,322.01L1032.952,339.588L1046.075,339.588Z" style="fill-rule:nonzero;"/>
            <path d="M1083.245,405.506C1076.816,405.506 1071.242,404.061 1066.522,401.172C1061.801,398.283 1058.17,394.306 1055.627,389.24C1053.084,384.174 1051.812,378.386 1051.812,371.875C1051.812,365.324 1053.124,359.516 1055.749,354.45C1058.373,349.384 1062.005,345.396 1066.644,342.487C1071.282,339.578 1076.613,338.123 1082.635,338.123C1088.82,338.123 1094.232,339.547 1098.87,342.395C1103.509,345.244 1107.11,349.18 1109.673,354.206C1112.237,359.231 1113.519,365.039 1113.519,371.631L1113.519,375.843L1066.888,375.843C1067.091,381.092 1068.637,385.323 1071.526,388.538C1074.415,391.752 1078.444,393.36 1083.611,393.36C1087.477,393.36 1090.671,392.515 1093.194,390.827C1095.717,389.138 1097.426,386.91 1098.321,384.143L1112.725,384.143C1111.911,388.335 1110.131,392.037 1107.385,395.252C1104.638,398.466 1101.19,400.979 1097.039,402.79C1092.889,404.6 1088.291,405.506 1083.245,405.506ZM1067.01,365.223L1098.748,365.223C1098.26,360.625 1096.602,356.993 1093.774,354.328C1090.946,351.663 1087.314,350.33 1082.879,350.33C1078.403,350.33 1074.771,351.663 1071.984,354.328C1069.197,356.993 1067.539,360.625 1067.01,365.223Z" style="fill-rule:nonzero;"/>
            <path d="M1123.956,404.041L1123.956,339.588L1138.787,339.588L1138.787,350.269L1138.97,350.269C1140.15,346.607 1142.012,343.809 1144.555,341.877C1147.098,339.944 1150.445,338.977 1154.595,338.977C1155.653,338.977 1156.599,339.008 1157.433,339.069C1158.268,339.13 1158.99,339.181 1159.6,339.222L1159.6,352.893C1159.03,352.812 1158.054,352.71 1156.67,352.588C1155.287,352.466 1153.843,352.405 1152.337,352.405C1148.675,352.405 1145.593,353.667 1143.09,356.189C1140.588,358.712 1139.336,362.496 1139.336,367.542L1139.336,404.041L1123.956,404.041Z" style="fill-rule:nonzero;"/>
            <path d="M1184.503,367.603L1184.503,404.041L1169.122,404.041L1169.122,339.588L1184.258,339.588L1184.258,349.475C1188.734,342.029 1195.326,338.306 1204.034,338.306C1210.788,338.306 1216.312,340.483 1220.605,344.837C1224.898,349.191 1227.044,355.498 1227.044,363.758L1227.044,404.041L1211.602,404.041L1211.602,366.199C1211.602,361.479 1210.463,357.898 1208.184,355.457C1205.905,353.015 1202.711,351.795 1198.602,351.795C1194.573,351.795 1191.216,353.056 1188.531,355.579C1185.845,358.102 1184.503,362.11 1184.503,367.603Z" style="fill-rule:nonzero;"/>
            <path d="M1240.716,404.041L1240.716,339.588L1256.097,339.588L1256.097,404.041L1240.716,404.041ZM1248.406,330.005C1245.761,330.005 1243.564,329.161 1241.815,327.472C1240.065,325.784 1239.19,323.698 1239.19,321.216C1239.19,318.734 1240.065,316.659 1241.815,314.991C1243.564,313.322 1245.761,312.488 1248.406,312.488C1251.01,312.488 1253.187,313.322 1254.937,314.991C1256.687,316.659 1257.562,318.734 1257.562,321.216C1257.562,323.698 1256.687,325.784 1254.937,327.472C1253.187,329.161 1251.01,330.005 1248.406,330.005Z" style="fill-rule:nonzero;"/>
            <path d="M1304.742,339.588L1304.742,351.978L1291.619,351.978L1291.619,385.547C1291.619,387.867 1292.087,389.464 1293.023,390.338C1293.959,391.213 1295.668,391.651 1298.15,391.651L1304.742,391.651L1304.742,404.041L1295.464,404.041C1288.913,404.041 1284.061,402.718 1280.908,400.074C1277.754,397.429 1276.177,393.339 1276.177,387.806L1276.177,351.978L1264.947,351.978L1264.947,339.588L1276.177,339.588L1276.177,322.01L1291.619,322.01L1291.619,339.588L1304.742,339.588Z" style="fill-rule:nonzero;"/>
            <path d="M1318.841,429.554L1318.841,417.041L1326.47,417.041C1328.545,417.041 1330.163,416.482 1331.323,415.363C1332.482,414.244 1333.51,412.423 1334.405,409.9L1336.785,403.675L1311.944,339.588L1328.24,339.588L1340.081,373.157C1340.895,375.558 1341.688,377.948 1342.461,380.329C1343.235,382.709 1343.987,385.079 1344.72,387.439C1346.185,382.719 1347.731,377.959 1349.358,373.157L1361.138,339.588L1377.252,339.588L1348.443,414.661C1344.618,424.589 1338.108,429.554 1328.912,429.554L1318.841,429.554Z" style="fill-rule:nonzero;"/>
        </g>
        <g transform="matrix(1,0,0,1,-26.419084,15.568062)">
            <path d="M242.754,404.041L242.754,367.664L250.396,367.664L258.55,388.977C258.876,389.905 259.299,391.122 259.82,392.627C260.341,394.133 260.813,395.52 261.236,396.79C261.643,395.52 262.107,394.133 262.628,392.627C263.148,391.122 263.572,389.905 263.897,388.977L271.929,367.664L279.595,367.664L279.595,404.041L274.273,404.041L274.273,384.217C274.273,382.915 274.289,381.397 274.322,379.663C274.354,377.93 274.395,376.201 274.444,374.475C273.777,376.445 273.146,378.3 272.552,380.042C271.958,381.783 271.465,383.175 271.075,384.217L263.409,404.041L258.965,404.041L251.226,384.217C250.852,383.224 250.376,381.91 249.798,380.274C249.22,378.638 248.598,376.876 247.93,374.988C247.979,376.648 248.02,378.292 248.052,379.92C248.085,381.547 248.101,382.98 248.101,384.217L248.101,404.041L242.754,404.041Z" style="fill:rgb(69,69,69);fill-rule:nonzero;"/>
            <path d="M285.821,404.041L285.821,378.26L290.972,378.26L290.972,404.041L285.821,404.041ZM288.384,373.816C287.473,373.816 286.704,373.511 286.077,372.901C285.451,372.29 285.137,371.546 285.137,370.667C285.137,369.772 285.451,369.019 286.077,368.409C286.704,367.798 287.473,367.493 288.384,367.493C289.296,367.493 290.069,367.798 290.704,368.409C291.338,369.019 291.656,369.772 291.656,370.667C291.656,371.546 291.338,372.29 290.704,372.901C290.069,373.511 289.296,373.816 288.384,373.816Z" style="fill:rgb(69,69,69);fill-rule:nonzero;"/>
            <rect x="296.783" y="367.664" width="5.151" height="36.377" style="fill:rgb(69,69,69);fill-rule:nonzero;"/>
            <path d="M318.755,404.627C316.2,404.627 314.007,404.049 312.176,402.893C310.345,401.738 308.937,400.147 307.952,398.12C306.968,396.094 306.475,393.787 306.475,391.199C306.475,388.579 306.988,386.251 308.013,384.217C309.039,382.182 310.455,380.583 312.261,379.419C314.068,378.256 316.143,377.674 318.487,377.674C320.928,377.674 323.048,378.243 324.847,379.383C326.645,380.522 328.041,382.105 329.034,384.131C330.027,386.158 330.523,388.497 330.523,391.15L330.523,392.542L311.553,392.542C311.651,394.869 312.322,396.749 313.567,398.182C314.813,399.614 316.566,400.33 318.829,400.33C320.521,400.33 321.913,399.947 323.003,399.182C324.094,398.418 324.818,397.425 325.176,396.204L330.132,396.204C329.823,397.864 329.135,399.329 328.069,400.598C327.003,401.868 325.669,402.857 324.065,403.565C322.462,404.273 320.692,404.627 318.755,404.627ZM311.602,388.636L325.494,388.636C325.282,386.585 324.558,384.961 323.321,383.765C322.084,382.569 320.489,381.971 318.536,381.971C316.583,381.971 314.992,382.569 313.763,383.765C312.534,384.961 311.814,386.585 311.602,388.636Z" style="fill:rgb(69,69,69);fill-rule:nonzero;"/>
            <path d="M344.512,404.651C342.543,404.651 340.769,404.334 339.19,403.699C337.611,403.064 336.338,402.12 335.369,400.867C334.401,399.614 333.86,398.059 333.746,396.204L338.824,396.204C339.117,399.101 340.98,400.55 344.415,400.55C346.042,400.55 347.332,400.216 348.284,399.549C349.236,398.881 349.712,398.035 349.712,397.01C349.712,396.131 349.371,395.427 348.687,394.898C348.003,394.369 347.108,393.982 346.002,393.738L341.729,392.786C336.797,391.712 334.332,389.254 334.332,385.413C334.332,383.134 335.239,381.279 337.054,379.847C338.869,378.414 341.249,377.698 344.195,377.698C347.108,377.698 349.505,378.451 351.385,379.956C353.265,381.462 354.237,383.517 354.302,386.121L349.371,386.121C349.354,384.868 348.882,383.83 347.955,383.008C347.027,382.186 345.798,381.775 344.268,381.775C342.803,381.775 341.64,382.117 340.777,382.801C339.914,383.484 339.483,384.322 339.483,385.315C339.483,386.194 339.813,386.902 340.472,387.439C341.131,387.976 342.038,388.375 343.194,388.636L347.588,389.612C350.095,390.166 351.942,391.02 353.13,392.176C354.319,393.331 354.913,394.845 354.913,396.717C354.913,398.361 354.461,399.772 353.558,400.953C352.654,402.133 351.421,403.044 349.859,403.687C348.296,404.33 346.514,404.651 344.512,404.651Z" style="fill:rgb(69,69,69);fill-rule:nonzero;"/>
            <path d="M372.369,378.26L372.369,382.508L367.144,382.508L367.144,397.229C367.144,398.19 367.339,398.857 367.73,399.231C368.121,399.606 368.829,399.793 369.854,399.793L372.369,399.793L372.369,404.041L369.122,404.041C364.353,404.041 361.968,401.99 361.968,397.889L361.968,382.508L357.427,382.508L357.427,378.26L361.968,378.26L361.968,371.228L367.144,371.228L367.144,378.26L372.369,378.26Z" style="fill:rgb(69,69,69);fill-rule:nonzero;"/>
            <path d="M387.09,404.627C384.633,404.627 382.476,404.057 380.621,402.918C378.765,401.779 377.321,400.2 376.287,398.182C375.254,396.163 374.737,393.836 374.737,391.199C374.737,388.53 375.254,386.182 376.287,384.156C377.321,382.129 378.765,380.542 380.621,379.395C382.476,378.247 384.633,377.674 387.09,377.674C389.548,377.674 391.701,378.247 393.548,379.395C395.395,380.542 396.836,382.129 397.869,384.156C398.903,386.182 399.419,388.53 399.419,391.199C399.419,393.836 398.903,396.163 397.869,398.182C396.836,400.2 395.395,401.779 393.548,402.918C391.701,404.057 389.548,404.627 387.09,404.627ZM387.09,400.183C389.304,400.183 391.045,399.37 392.315,397.742C393.585,396.114 394.219,393.933 394.219,391.199C394.219,388.432 393.58,386.227 392.303,384.583C391.025,382.939 389.288,382.117 387.09,382.117C384.893,382.117 383.156,382.935 381.878,384.571C380.6,386.206 379.961,388.416 379.961,391.199C379.961,393.95 380.596,396.135 381.866,397.754C383.135,399.374 384.877,400.183 387.09,400.183Z" style="fill:rgb(69,69,69);fill-rule:nonzero;"/>
            <path d="M409.136,389.197L409.136,404.041L403.985,404.041L403.985,378.26L409.039,378.26L409.039,382.141C410.796,379.212 413.392,377.747 416.827,377.747C418.601,377.747 420.192,378.133 421.6,378.907C423.008,379.68 424.118,380.823 424.932,382.337C425.746,383.85 426.153,385.73 426.153,387.976L426.153,404.041L421.002,404.041L421.002,388.611C421.002,386.544 420.505,384.986 419.512,383.936C418.519,382.886 417.136,382.361 415.362,382.361C413.604,382.361 412.127,382.902 410.931,383.985C409.734,385.067 409.136,386.805 409.136,389.197Z" style="fill:rgb(69,69,69);fill-rule:nonzero;"/>
            <path d="M442.974,404.627C440.419,404.627 438.226,404.049 436.395,402.893C434.564,401.738 433.156,400.147 432.171,398.12C431.186,396.094 430.694,393.787 430.694,391.199C430.694,388.579 431.207,386.251 432.232,384.217C433.257,382.182 434.673,380.583 436.48,379.419C438.287,378.256 440.362,377.674 442.706,377.674C445.147,377.674 447.267,378.243 449.065,379.383C450.864,380.522 452.26,382.105 453.253,384.131C454.245,386.158 454.742,388.497 454.742,391.15L454.742,392.542L435.772,392.542C435.87,394.869 436.541,396.749 437.786,398.182C439.031,399.614 440.785,400.33 443.047,400.33C444.74,400.33 446.132,399.947 447.222,399.182C448.313,398.418 449.037,397.425 449.395,396.204L454.351,396.204C454.042,397.864 453.354,399.329 452.288,400.598C451.222,401.868 449.887,402.857 448.284,403.565C446.681,404.273 444.911,404.627 442.974,404.627ZM435.821,388.636L449.712,388.636C449.501,386.585 448.777,384.961 447.54,383.765C446.303,382.569 444.708,381.971 442.754,381.971C440.801,381.971 439.21,382.569 437.982,383.765C436.753,384.961 436.032,386.585 435.821,388.636Z" style="fill:rgb(69,69,69);fill-rule:nonzero;"/>
            <path d="M471.514,404.041L471.514,367.664L485.113,367.664C488.856,367.664 491.774,368.531 493.865,370.264C495.957,371.997 497.003,374.321 497.003,377.234C497.003,379.318 496.461,381.01 495.379,382.312C494.297,383.614 492.803,384.558 490.899,385.144L490.899,385.193C493.015,385.486 494.801,386.349 496.258,387.781C497.715,389.213 498.443,391.223 498.443,393.811C498.443,396.904 497.365,399.382 495.208,401.245C493.051,403.109 489.825,404.041 485.528,404.041L471.514,404.041ZM476.885,399.475L485.186,399.475C487.66,399.475 489.568,398.991 490.911,398.023C492.254,397.054 492.925,395.642 492.925,393.787C492.925,391.948 492.27,390.491 490.96,389.417C489.65,388.343 487.79,387.806 485.381,387.806L476.885,387.806L476.885,399.475ZM476.885,383.338L485.04,383.338C487.107,383.338 488.722,382.841 489.886,381.848C491.05,380.856 491.631,379.505 491.631,377.796C491.631,376.087 491.05,374.732 489.886,373.731C488.722,372.73 487.107,372.229 485.04,372.229L476.885,372.229L476.885,383.338Z" style="fill:rgb(69,69,69);fill-rule:nonzero;"/>
            <path d="M512.432,404.554C510.674,404.554 509.092,404.167 507.684,403.394C506.276,402.621 505.161,401.477 504.339,399.964C503.517,398.45 503.106,396.57 503.106,394.324L503.106,378.26L508.257,378.26L508.257,393.689C508.257,395.756 508.754,397.315 509.747,398.365C510.739,399.414 512.131,399.939 513.921,399.939C515.663,399.939 517.132,399.398 518.328,398.316C519.524,397.233 520.123,395.496 520.123,393.103L520.123,378.26L525.274,378.26L525.274,404.041L520.22,404.041L520.22,400.159C518.462,403.089 515.866,404.554 512.432,404.554Z" style="fill:rgb(69,69,69);fill-rule:nonzero;"/>
            <path d="M540.63,404.651C538.661,404.651 536.887,404.334 535.308,403.699C533.729,403.064 532.456,402.12 531.487,400.867C530.519,399.614 529.978,398.059 529.864,396.204L534.942,396.204C535.235,399.101 537.099,400.55 540.533,400.55C542.16,400.55 543.45,400.216 544.402,399.549C545.355,398.881 545.831,398.035 545.831,397.01C545.831,396.131 545.489,395.427 544.805,394.898C544.122,394.369 543.226,393.982 542.12,393.738L537.847,392.786C532.916,391.712 530.45,389.254 530.45,385.413C530.45,383.134 531.357,381.279 533.172,379.847C534.987,378.414 537.367,377.698 540.313,377.698C543.226,377.698 545.623,378.451 547.503,379.956C549.383,381.462 550.355,383.517 550.42,386.121L545.489,386.121C545.473,384.868 545.001,383.83 544.073,383.008C543.145,382.186 541.916,381.775 540.386,381.775C538.921,381.775 537.758,382.117 536.895,382.801C536.032,383.484 535.601,384.322 535.601,385.315C535.601,386.194 535.931,386.902 536.59,387.439C537.249,387.976 538.156,388.375 539.312,388.636L543.707,389.612C546.213,390.166 548.06,391.02 549.249,392.176C550.437,393.331 551.031,394.845 551.031,396.717C551.031,398.361 550.579,399.772 549.676,400.953C548.773,402.133 547.54,403.044 545.977,403.687C544.415,404.33 542.632,404.651 540.63,404.651Z" style="fill:rgb(69,69,69);fill-rule:nonzero;"/>
            <path d="M555.572,404.041L555.572,378.26L560.723,378.26L560.723,404.041L555.572,404.041ZM558.135,373.816C557.224,373.816 556.455,373.511 555.828,372.901C555.202,372.29 554.888,371.546 554.888,370.667C554.888,369.772 555.202,369.019 555.828,368.409C556.455,367.798 557.224,367.493 558.135,367.493C559.047,367.493 559.82,367.798 560.455,368.409C561.089,369.019 561.407,369.772 561.407,370.667C561.407,371.546 561.089,372.29 560.455,372.901C559.82,373.511 559.047,373.816 558.135,373.816Z" style="fill:rgb(69,69,69);fill-rule:nonzero;"/>
            <path d="M571.685,389.197L571.685,404.041L566.534,404.041L566.534,378.26L571.587,378.26L571.587,382.141C573.345,379.212 575.941,377.747 579.376,377.747C581.15,377.747 582.741,378.133 584.148,378.907C585.556,379.68 586.667,380.823 587.481,382.337C588.295,383.85 588.702,385.73 588.702,387.976L588.702,404.041L583.55,404.041L583.55,388.611C583.55,386.544 583.054,384.986 582.061,383.936C581.068,382.886 579.685,382.361 577.911,382.361C576.153,382.361 574.676,382.902 573.48,383.985C572.283,385.067 571.685,386.805 571.685,389.197Z" style="fill:rgb(69,69,69);fill-rule:nonzero;"/>
            <path d="M605.523,404.627C602.968,404.627 600.774,404.049 598.943,402.893C597.112,401.738 595.704,400.147 594.72,398.12C593.735,396.094 593.243,393.787 593.243,391.199C593.243,388.579 593.755,386.251 594.781,384.217C595.806,382.182 597.222,380.583 599.029,379.419C600.836,378.256 602.911,377.674 605.254,377.674C607.696,377.674 609.816,378.243 611.614,379.383C613.413,380.522 614.808,382.105 615.801,384.131C616.794,386.158 617.291,388.497 617.291,391.15L617.291,392.542L598.321,392.542C598.419,394.869 599.09,396.749 600.335,398.182C601.58,399.614 603.334,400.33 605.596,400.33C607.289,400.33 608.681,399.947 609.771,399.182C610.862,398.418 611.586,397.425 611.944,396.204L616.9,396.204C616.591,397.864 615.903,399.329 614.837,400.598C613.771,401.868 612.436,402.857 610.833,403.565C609.23,404.273 607.46,404.627 605.523,404.627ZM598.37,388.636L612.261,388.636C612.05,386.585 611.325,384.961 610.088,383.765C608.851,382.569 607.256,381.971 605.303,381.971C603.35,381.971 601.759,382.569 600.53,383.765C599.301,384.961 598.581,386.585 598.37,388.636Z" style="fill:rgb(69,69,69);fill-rule:nonzero;"/>
            <path d="M631.28,404.651C629.31,404.651 627.536,404.334 625.958,403.699C624.379,403.064 623.105,402.12 622.137,400.867C621.168,399.614 620.627,398.059 620.513,396.204L625.591,396.204C625.884,399.101 627.748,400.55 631.182,400.55C632.81,400.55 634.1,400.216 635.052,399.549C636.004,398.881 636.48,398.035 636.48,397.01C636.48,396.131 636.138,395.427 635.455,394.898C634.771,394.369 633.876,393.982 632.769,393.738L628.497,392.786C623.565,391.712 621.099,389.254 621.099,385.413C621.099,383.134 622.007,381.279 623.821,379.847C625.636,378.414 628.017,377.698 630.962,377.698C633.876,377.698 636.273,378.451 638.152,379.956C640.032,381.462 641.005,383.517 641.07,386.121L636.138,386.121C636.122,384.868 635.65,383.83 634.722,383.008C633.794,382.186 632.566,381.775 631.036,381.775C629.571,381.775 628.407,382.117 627.544,382.801C626.682,383.484 626.251,384.322 626.251,385.315C626.251,386.194 626.58,386.902 627.239,387.439C627.898,387.976 628.806,388.375 629.961,388.636L634.356,389.612C636.863,390.166 638.71,391.02 639.898,392.176C641.086,393.331 641.68,394.845 641.68,396.717C641.68,398.361 641.229,399.772 640.325,400.953C639.422,402.133 638.189,403.044 636.627,403.687C635.064,404.33 633.282,404.651 631.28,404.651Z" style="fill:rgb(69,69,69);fill-rule:nonzero;"/>
            <path d="M655.767,404.651C653.798,404.651 652.024,404.334 650.445,403.699C648.866,403.064 647.593,402.12 646.624,400.867C645.656,399.614 645.114,398.059 645.001,396.204L650.079,396.204C650.372,399.101 652.235,400.55 655.669,400.55C657.297,400.55 658.587,400.216 659.539,399.549C660.491,398.881 660.967,398.035 660.967,397.01C660.967,396.131 660.626,395.427 659.942,394.898C659.258,394.369 658.363,393.982 657.256,393.738L652.984,392.786C648.052,391.712 645.586,389.254 645.586,385.413C645.586,383.134 646.494,381.279 648.309,379.847C650.123,378.414 652.504,377.698 655.45,377.698C658.363,377.698 660.76,378.451 662.64,379.956C664.52,381.462 665.492,383.517 665.557,386.121L660.626,386.121C660.609,384.868 660.137,383.83 659.21,383.008C658.282,382.186 657.053,381.775 655.523,381.775C654.058,381.775 652.894,382.117 652.032,382.801C651.169,383.484 650.738,384.322 650.738,385.315C650.738,386.194 651.067,386.902 651.727,387.439C652.386,387.976 653.293,388.375 654.449,388.636L658.843,389.612C661.35,390.166 663.197,391.02 664.385,392.176C665.573,393.331 666.168,394.845 666.168,396.717C666.168,398.361 665.716,399.772 664.813,400.953C663.909,402.133 662.676,403.044 661.114,403.687C659.551,404.33 657.769,404.651 655.767,404.651Z" style="fill:rgb(69,69,69);fill-rule:nonzero;"/>
            <path d="M683.038,404.041L683.038,367.664L696.514,367.664C700.404,367.664 703.489,368.681 705.767,370.716C708.046,372.75 709.185,375.509 709.185,378.992C709.185,381.32 708.656,383.334 707.598,385.035C706.54,386.735 705.051,388.046 703.13,388.965C701.21,389.885 698.947,390.345 696.343,390.345L688.458,390.345L688.458,404.041L683.038,404.041ZM688.458,385.657L696.246,385.657C698.589,385.657 700.441,385.059 701.8,383.863C703.159,382.666 703.838,381.043 703.838,378.992C703.838,376.941 703.159,375.326 701.8,374.146C700.441,372.966 698.589,372.376 696.246,372.376L688.458,372.376L688.458,385.657Z" style="fill:rgb(69,69,69);fill-rule:nonzero;"/>
            <path d="M720.22,404.456C717.649,404.456 715.517,403.801 713.824,402.491C712.131,401.18 711.285,399.239 711.285,396.668C711.285,394.715 711.769,393.213 712.737,392.163C713.706,391.114 714.967,390.361 716.522,389.905C718.076,389.449 719.724,389.116 721.465,388.904C723.077,388.709 724.354,388.546 725.298,388.416C726.242,388.286 726.914,388.09 727.313,387.83C727.711,387.57 727.911,387.122 727.911,386.487L727.911,386.267C727.911,385.014 727.455,383.985 726.544,383.179C725.632,382.373 724.354,381.971 722.711,381.971C721.067,381.971 719.724,382.365 718.682,383.155C717.641,383.944 717.071,384.933 716.973,386.121L711.919,386.121C712.033,383.663 713.067,381.653 715.02,380.091C716.973,378.528 719.561,377.747 722.784,377.747C725.958,377.747 728.456,378.528 730.279,380.091C732.102,381.653 733.013,383.745 733.013,386.365L733.013,404.041L727.935,404.041L727.935,400.379L727.837,400.379C727.3,401.42 726.45,402.36 725.286,403.199C724.122,404.037 722.434,404.456 720.22,404.456ZM721.27,400.306C723.549,400.306 725.229,399.716 726.312,398.536C727.394,397.355 727.935,395.976 727.935,394.397L727.935,391.37C727.593,391.647 726.82,391.895 725.616,392.115C724.411,392.334 723.126,392.542 721.758,392.737C720.342,392.949 719.097,393.348 718.023,393.933C716.949,394.519 716.412,395.463 716.412,396.765C716.412,397.872 716.847,398.739 717.718,399.366C718.589,399.992 719.773,400.306 721.27,400.306Z" style="fill:rgb(69,69,69);fill-rule:nonzero;"/>
            <path d="M738.824,404.041L738.824,378.26L743.755,378.26L743.755,382.434L743.853,382.434C744.325,381.018 745.07,379.916 746.087,379.126C747.104,378.337 748.435,377.942 750.079,377.942C750.469,377.942 750.827,377.959 751.153,377.991C751.478,378.024 751.747,378.048 751.959,378.064L751.959,382.874C751.763,382.825 751.413,382.772 750.909,382.715C750.404,382.658 749.851,382.63 749.249,382.63C747.8,382.63 746.559,383.134 745.525,384.143C744.492,385.153 743.975,386.707 743.975,388.807L743.975,404.041L738.824,404.041Z" style="fill:rgb(69,69,69);fill-rule:nonzero;"/>
            <path d="M755.474,404.041L755.474,367.664L760.626,367.664L760.626,389.27L760.699,389.27L771.685,378.26L778.082,378.26L767.169,389.344L778.814,404.041L772.491,404.041L763.238,392.444L760.626,394.983L760.626,404.041L755.474,404.041Z" style="fill:rgb(69,69,69);fill-rule:nonzero;"/>
        </g>
        <g transform="matrix(1,0,0,1,-26.419084,87.789324)">
            <path d="M242.754,404.041L242.754,367.664L248.76,367.664L262.652,389.661C263.075,390.345 263.653,391.313 264.385,392.566C265.118,393.82 265.85,395.089 266.583,396.375C266.534,395.057 266.497,393.718 266.473,392.359C266.448,391 266.436,389.987 266.436,389.319L266.436,367.664L271.88,367.664L271.88,404.041L265.826,404.041L253.399,384.388C252.894,383.59 252.166,382.398 251.214,380.811C250.262,379.224 249.183,377.397 247.979,375.33C248.06,377.462 248.113,379.297 248.138,380.835C248.162,382.373 248.174,383.549 248.174,384.363L248.174,404.041L242.754,404.041Z" style="fill:rgb(69,69,69);fill-rule:nonzero;"/>
            <path d="M289.166,404.627C286.708,404.627 284.551,404.057 282.696,402.918C280.84,401.779 279.396,400.2 278.362,398.182C277.329,396.163 276.812,393.836 276.812,391.199C276.812,388.53 277.329,386.182 278.362,384.156C279.396,382.129 280.84,380.542 282.696,379.395C284.551,378.247 286.708,377.674 289.166,377.674C291.623,377.674 293.776,378.247 295.623,379.395C297.47,380.542 298.911,382.129 299.944,384.156C300.978,386.182 301.495,388.53 301.495,391.199C301.495,393.836 300.978,396.163 299.944,398.182C298.911,400.2 297.47,401.779 295.623,402.918C293.776,404.057 291.623,404.627 289.166,404.627ZM289.166,400.183C291.379,400.183 293.121,399.37 294.39,397.742C295.66,396.114 296.294,393.933 296.294,391.199C296.294,388.432 295.656,386.227 294.378,384.583C293.1,382.939 291.363,382.117 289.166,382.117C286.968,382.117 285.231,382.935 283.953,384.571C282.676,386.206 282.037,388.416 282.037,391.199C282.037,393.95 282.671,396.135 283.941,397.754C285.211,399.374 286.952,400.183 289.166,400.183Z" style="fill:rgb(69,69,69);fill-rule:nonzero;"/>
            <path d="M306.06,404.041L306.06,378.26L310.992,378.26L310.992,382.434L311.089,382.434C311.561,381.018 312.306,379.916 313.323,379.126C314.341,378.337 315.671,377.942 317.315,377.942C317.706,377.942 318.064,377.959 318.389,377.991C318.715,378.024 318.983,378.048 319.195,378.064L319.195,382.874C319,382.825 318.65,382.772 318.145,382.715C317.641,382.658 317.087,382.63 316.485,382.63C315.036,382.63 313.795,383.134 312.762,384.143C311.728,385.153 311.211,386.707 311.211,388.807L311.211,404.041L306.06,404.041Z" style="fill:rgb(69,69,69);fill-rule:nonzero;"/>
            <path d="M336.309,378.26L336.309,382.508L331.085,382.508L331.085,397.229C331.085,398.19 331.28,398.857 331.67,399.231C332.061,399.606 332.769,399.793 333.794,399.793L336.309,399.793L336.309,404.041L333.062,404.041C328.293,404.041 325.909,401.99 325.909,397.889L325.909,382.508L321.368,382.508L321.368,378.26L325.909,378.26L325.909,371.228L331.085,371.228L331.085,378.26L336.309,378.26Z" style="fill:rgb(69,69,69);fill-rule:nonzero;"/>
            <path d="M345.538,389.197L345.538,404.041L340.386,404.041L340.386,367.664L345.538,367.664L345.538,381.971C347.312,379.155 349.875,377.747 353.228,377.747C355.002,377.747 356.593,378.133 358.001,378.907C359.409,379.68 360.52,380.823 361.334,382.337C362.147,383.85 362.554,385.73 362.554,387.976L362.554,404.041L357.403,404.041L357.403,388.611C357.403,386.544 356.906,384.986 355.914,383.936C354.921,382.886 353.537,382.361 351.763,382.361C350.005,382.361 348.528,382.902 347.332,383.985C346.136,385.067 345.538,386.805 345.538,389.197Z" style="fill:rgb(69,69,69);fill-rule:nonzero;"/>
            <path d="M379.376,404.627C376.82,404.627 374.627,404.049 372.796,402.893C370.965,401.738 369.557,400.147 368.572,398.12C367.588,396.094 367.095,393.787 367.095,391.199C367.095,388.579 367.608,386.251 368.633,384.217C369.659,382.182 371.075,380.583 372.881,379.419C374.688,378.256 376.763,377.674 379.107,377.674C381.548,377.674 383.668,378.243 385.467,379.383C387.265,380.522 388.661,382.105 389.654,384.131C390.647,386.158 391.143,388.497 391.143,391.15L391.143,392.542L372.173,392.542C372.271,394.869 372.942,396.749 374.188,398.182C375.433,399.614 377.186,400.33 379.449,400.33C381.142,400.33 382.533,399.947 383.624,399.182C384.714,398.418 385.438,397.425 385.796,396.204L390.753,396.204C390.443,397.864 389.756,399.329 388.69,400.598C387.623,401.868 386.289,402.857 384.686,403.565C383.082,404.273 381.312,404.627 379.376,404.627ZM372.222,388.636L386.114,388.636C385.902,386.585 385.178,384.961 383.941,383.765C382.704,382.569 381.109,381.971 379.156,381.971C377.203,381.971 375.612,382.569 374.383,383.765C373.154,384.961 372.434,386.585 372.222,388.636Z" style="fill:rgb(69,69,69);fill-rule:nonzero;"/>
            <path d="M395.586,404.041L395.586,378.26L400.518,378.26L400.518,382.434L400.616,382.434C401.088,381.018 401.832,379.916 402.85,379.126C403.867,378.337 405.197,377.942 406.841,377.942C407.232,377.942 407.59,377.959 407.916,377.991C408.241,378.024 408.51,378.048 408.721,378.064L408.721,382.874C408.526,382.825 408.176,382.772 407.671,382.715C407.167,382.658 406.614,382.63 406.011,382.63C404.563,382.63 403.322,383.134 402.288,384.143C401.255,385.153 400.738,386.707 400.738,388.807L400.738,404.041L395.586,404.041Z" style="fill:rgb(69,69,69);fill-rule:nonzero;"/>
            <path d="M417.828,389.197L417.828,404.041L412.676,404.041L412.676,378.26L417.73,378.26L417.73,382.141C419.488,379.212 422.084,377.747 425.518,377.747C427.292,377.747 428.883,378.133 430.291,378.907C431.699,379.68 432.81,380.823 433.624,382.337C434.437,383.85 434.844,385.73 434.844,387.976L434.844,404.041L429.693,404.041L429.693,388.611C429.693,386.544 429.197,384.986 428.204,383.936C427.211,382.886 425.827,382.361 424.053,382.361C422.295,382.361 420.818,382.902 419.622,383.985C418.426,385.067 417.828,386.805 417.828,389.197Z" style="fill:rgb(69,69,69);fill-rule:nonzero;"/>
            <path d="M452.984,404.041L452.984,367.664L466.583,367.664C470.326,367.664 473.244,368.531 475.335,370.264C477.426,371.997 478.472,374.321 478.472,377.234C478.472,379.318 477.931,381.01 476.849,382.312C475.766,383.614 474.273,384.558 472.369,385.144L472.369,385.193C474.485,385.486 476.271,386.349 477.728,387.781C479.184,389.213 479.913,391.223 479.913,393.811C479.913,396.904 478.834,399.382 476.678,401.245C474.521,403.109 471.294,404.041 466.998,404.041L452.984,404.041ZM458.355,399.475L466.656,399.475C469.13,399.475 471.038,398.991 472.381,398.023C473.724,397.054 474.395,395.642 474.395,393.787C474.395,391.948 473.74,390.491 472.43,389.417C471.12,388.343 469.26,387.806 466.851,387.806L458.355,387.806L458.355,399.475ZM458.355,383.338L466.509,383.338C468.576,383.338 470.192,382.841 471.356,381.848C472.519,380.856 473.101,379.505 473.101,377.796C473.101,376.087 472.519,374.732 471.356,373.731C470.192,372.73 468.576,372.229 466.509,372.229L458.355,372.229L458.355,383.338Z" style="fill:rgb(69,69,69);fill-rule:nonzero;"/>
            <path d="M484.918,414.246L484.918,409.9L487.701,409.9C488.515,409.9 489.178,409.668 489.69,409.204C490.203,408.741 490.655,407.98 491.045,406.922L492.217,403.87L482.256,378.26L487.774,378.26L492.925,392.395C493.267,393.356 493.601,394.32 493.926,395.288C494.252,396.257 494.569,397.221 494.878,398.182C495.188,397.221 495.509,396.257 495.843,395.288C496.176,394.32 496.514,393.356 496.856,392.395L501.934,378.26L507.378,378.26L495.66,408.557C494.211,412.35 491.721,414.246 488.189,414.246L484.918,414.246Z" style="fill:rgb(69,69,69);fill-rule:nonzero;"/>
            <path d="M510.87,414.246L510.87,378.26L515.923,378.26L515.923,381.971L515.997,381.971C516.81,380.555 517.925,379.497 519.341,378.797C520.757,378.097 522.304,377.747 523.98,377.747C526.194,377.747 528.139,378.313 529.815,379.444C531.491,380.575 532.798,382.146 533.733,384.156C534.669,386.166 535.137,388.497 535.137,391.15C535.137,393.803 534.673,396.135 533.746,398.145C532.818,400.155 531.516,401.726 529.839,402.857C528.163,403.988 526.202,404.554 523.956,404.554C522.279,404.554 520.766,404.187 519.415,403.455C518.064,402.723 516.957,401.624 516.094,400.159L516.021,400.159L516.021,414.246L510.87,414.246ZM522.906,400.11C524.989,400.11 526.678,399.345 527.972,397.815C529.266,396.285 529.913,394.064 529.913,391.15C529.913,388.237 529.266,386.011 527.972,384.473C526.678,382.935 524.989,382.166 522.906,382.166C520.709,382.166 518.955,382.984 517.645,384.619C516.334,386.255 515.679,388.432 515.679,391.15C515.679,393.852 516.334,396.021 517.645,397.657C518.955,399.292 520.709,400.11 522.906,400.11Z" style="fill:rgb(69,69,69);fill-rule:nonzero;"/>
            <path d="M547.833,404.456C545.261,404.456 543.129,403.801 541.436,402.491C539.743,401.18 538.897,399.239 538.897,396.668C538.897,394.715 539.381,393.213 540.35,392.163C541.318,391.114 542.579,390.361 544.134,389.905C545.688,389.449 547.336,389.116 549.078,388.904C550.689,388.709 551.967,388.546 552.911,388.416C553.855,388.286 554.526,388.09 554.925,387.83C555.324,387.57 555.523,387.122 555.523,386.487L555.523,386.267C555.523,385.014 555.067,383.985 554.156,383.179C553.244,382.373 551.967,381.971 550.323,381.971C548.679,381.971 547.336,382.365 546.294,383.155C545.253,383.944 544.683,384.933 544.586,386.121L539.532,386.121C539.646,383.663 540.679,381.653 542.632,380.091C544.586,378.528 547.173,377.747 550.396,377.747C553.57,377.747 556.068,378.528 557.891,380.091C559.714,381.653 560.626,383.745 560.626,386.365L560.626,404.041L555.547,404.041L555.547,400.379L555.45,400.379C554.913,401.42 554.062,402.36 552.898,403.199C551.735,404.037 550.046,404.456 547.833,404.456ZM548.882,400.306C551.161,400.306 552.842,399.716 553.924,398.536C555.006,397.355 555.547,395.976 555.547,394.397L555.547,391.37C555.206,391.647 554.433,391.895 553.228,392.115C552.024,392.334 550.738,392.542 549.371,392.737C547.955,392.949 546.71,393.348 545.635,393.933C544.561,394.519 544.024,395.463 544.024,396.765C544.024,397.872 544.459,398.739 545.33,399.366C546.201,399.992 547.385,400.306 548.882,400.306Z" style="fill:rgb(69,69,69);fill-rule:nonzero;"/>
            <path d="M575.982,404.651C574.013,404.651 572.239,404.334 570.66,403.699C569.081,403.064 567.807,402.12 566.839,400.867C565.871,399.614 565.329,398.059 565.215,396.204L570.294,396.204C570.586,399.101 572.45,400.55 575.884,400.55C577.512,400.55 578.802,400.216 579.754,399.549C580.706,398.881 581.182,398.035 581.182,397.01C581.182,396.131 580.84,395.427 580.157,394.898C579.473,394.369 578.578,393.982 577.471,393.738L573.199,392.786C568.267,391.712 565.801,389.254 565.801,385.413C565.801,383.134 566.709,381.279 568.523,379.847C570.338,378.414 572.719,377.698 575.665,377.698C578.578,377.698 580.975,378.451 582.855,379.956C584.734,381.462 585.707,383.517 585.772,386.121L580.84,386.121C580.824,384.868 580.352,383.83 579.424,383.008C578.497,382.186 577.268,381.775 575.738,381.775C574.273,381.775 573.109,382.117 572.247,382.801C571.384,383.484 570.953,384.322 570.953,385.315C570.953,386.194 571.282,386.902 571.941,387.439C572.601,387.976 573.508,388.375 574.664,388.636L579.058,389.612C581.565,390.166 583.412,391.02 584.6,392.176C585.788,393.331 586.382,394.845 586.382,396.717C586.382,398.361 585.931,399.772 585.027,400.953C584.124,402.133 582.891,403.044 581.329,403.687C579.766,404.33 577.984,404.651 575.982,404.651Z" style="fill:rgb(69,69,69);fill-rule:nonzero;"/>
            <path d="M600.469,404.651C598.5,404.651 596.726,404.334 595.147,403.699C593.568,403.064 592.295,402.12 591.326,400.867C590.358,399.614 589.817,398.059 589.703,396.204L594.781,396.204C595.074,399.101 596.937,400.55 600.372,400.55C601.999,400.55 603.289,400.216 604.241,399.549C605.193,398.881 605.669,398.035 605.669,397.01C605.669,396.131 605.328,395.427 604.644,394.898C603.961,394.369 603.065,393.982 601.959,393.738L597.686,392.786C592.754,391.712 590.289,389.254 590.289,385.413C590.289,383.134 591.196,381.279 593.011,379.847C594.826,378.414 597.206,377.698 600.152,377.698C603.065,377.698 605.462,378.451 607.342,379.956C609.222,381.462 610.194,383.517 610.259,386.121L605.328,386.121C605.311,384.868 604.839,383.83 603.912,383.008C602.984,382.186 601.755,381.775 600.225,381.775C598.76,381.775 597.597,382.117 596.734,382.801C595.871,383.484 595.44,384.322 595.44,385.315C595.44,386.194 595.77,386.902 596.429,387.439C597.088,387.976 597.995,388.375 599.151,388.636L603.545,389.612C606.052,390.166 607.899,391.02 609.087,392.176C610.276,393.331 610.87,394.845 610.87,396.717C610.87,398.361 610.418,399.772 609.515,400.953C608.611,402.133 607.378,403.044 605.816,403.687C604.253,404.33 602.471,404.651 600.469,404.651Z" style="fill:rgb(69,69,69);fill-rule:nonzero;"/>
            <path d="M627.74,404.041L627.74,367.664L641.583,367.664C645.473,367.664 648.557,368.681 650.836,370.716C653.114,372.75 654.253,375.509 654.253,378.992C654.253,381.531 653.602,383.692 652.3,385.474C650.998,387.256 649.216,388.554 646.954,389.368L654.815,404.041L648.711,404.041L641.461,390.271L633.16,390.271L633.16,404.041L627.74,404.041ZM633.16,385.657L641.363,385.657C643.707,385.657 645.55,385.059 646.893,383.863C648.235,382.666 648.907,381.043 648.907,378.992C648.907,376.941 648.231,375.322 646.88,374.134C645.53,372.946 643.682,372.351 641.338,372.351L633.16,372.351L633.16,385.657Z" style="fill:rgb(69,69,69);fill-rule:nonzero;"/>
            <path d="M668.072,404.554C665.826,404.554 663.864,403.988 662.188,402.857C660.512,401.726 659.21,400.155 658.282,398.145C657.354,396.135 656.89,393.803 656.89,391.15C656.89,388.497 657.358,386.166 658.294,384.156C659.23,382.146 660.536,380.575 662.212,379.444C663.889,378.313 665.834,377.747 668.047,377.747C669.724,377.747 671.254,378.097 672.637,378.797C674.021,379.497 675.128,380.563 675.958,381.995L676.006,381.995L676.006,367.664L681.158,367.664L681.158,404.041L676.104,404.041L676.104,400.11L676.055,400.11C675.193,401.608 674.065,402.723 672.674,403.455C671.282,404.187 669.748,404.554 668.072,404.554ZM669.122,400.11C671.319,400.11 673.073,399.292 674.383,397.657C675.693,396.021 676.348,393.852 676.348,391.15C676.348,388.432 675.693,386.255 674.383,384.619C673.073,382.984 671.319,382.166 669.122,382.166C667.038,382.166 665.35,382.935 664.056,384.473C662.762,386.011 662.115,388.237 662.115,391.15C662.115,394.064 662.762,396.285 664.056,397.815C665.35,399.345 667.038,400.11 669.122,400.11Z" style="fill:rgb(69,69,69);fill-rule:nonzero;"/>
            <path d="M685.357,411.145L687.383,398.67L692.657,398.67L689.044,411.145L685.357,411.145Z" style="fill:rgb(69,69,69);fill-rule:nonzero;"/>
            <path d="M710.186,404.041L710.186,367.664L716.192,367.664L730.084,389.661C730.507,390.345 731.085,391.313 731.817,392.566C732.549,393.82 733.282,395.089 734.014,396.375C733.965,395.057 733.929,393.718 733.904,392.359C733.88,391 733.868,389.987 733.868,389.319L733.868,367.664L739.312,367.664L739.312,404.041L733.257,404.041L720.831,384.388C720.326,383.59 719.598,382.398 718.646,380.811C717.693,379.224 716.615,377.397 715.411,375.33C715.492,377.462 715.545,379.297 715.569,380.835C715.594,382.373 715.606,383.549 715.606,384.363L715.606,404.041L710.186,404.041Z" style="fill:rgb(69,69,69);fill-rule:nonzero;"/>
            <path d="M753.375,404.456C750.803,404.456 748.671,403.801 746.978,402.491C745.285,401.18 744.439,399.239 744.439,396.668C744.439,394.715 744.923,393.213 745.892,392.163C746.86,391.114 748.121,390.361 749.676,389.905C751.23,389.449 752.878,389.116 754.62,388.904C756.231,388.709 757.509,388.546 758.453,388.416C759.397,388.286 760.068,388.09 760.467,387.83C760.866,387.57 761.065,387.122 761.065,386.487L761.065,386.267C761.065,385.014 760.609,383.985 759.698,383.179C758.786,382.373 757.509,381.971 755.865,381.971C754.221,381.971 752.878,382.365 751.836,383.155C750.795,383.944 750.225,384.933 750.128,386.121L745.074,386.121C745.188,383.663 746.221,381.653 748.174,380.091C750.128,378.528 752.715,377.747 755.938,377.747C759.112,377.747 761.61,378.528 763.433,380.091C765.256,381.653 766.168,383.745 766.168,386.365L766.168,404.041L761.089,404.041L761.089,400.379L760.992,400.379C760.455,401.42 759.604,402.36 758.44,403.199C757.277,404.037 755.588,404.456 753.375,404.456ZM754.424,400.306C756.703,400.306 758.384,399.716 759.466,398.536C760.548,397.355 761.089,395.976 761.089,394.397L761.089,391.37C760.748,391.647 759.975,391.895 758.77,392.115C757.566,392.334 756.28,392.542 754.913,392.737C753.497,392.949 752.252,393.348 751.177,393.933C750.103,394.519 749.566,395.463 749.566,396.765C749.566,397.872 750.001,398.739 750.872,399.366C751.743,399.992 752.927,400.306 754.424,400.306Z" style="fill:rgb(69,69,69);fill-rule:nonzero;"/>
            <path d="M771.978,404.041L771.978,378.26L777.129,378.26L777.129,404.041L771.978,404.041ZM774.542,373.816C773.63,373.816 772.861,373.511 772.234,372.901C771.608,372.29 771.294,371.546 771.294,370.667C771.294,369.772 771.608,369.019 772.234,368.409C772.861,367.798 773.63,367.493 774.542,367.493C775.453,367.493 776.226,367.798 776.861,368.409C777.496,369.019 777.813,369.772 777.813,370.667C777.813,371.546 777.496,372.29 776.861,372.901C776.226,373.511 775.453,373.816 774.542,373.816Z" style="fill:rgb(69,69,69);fill-rule:nonzero;"/>
            <path d="M782.94,404.041L782.94,378.26L787.872,378.26L787.872,382.434L787.969,382.434C788.441,381.018 789.186,379.916 790.203,379.126C791.22,378.337 792.551,377.942 794.195,377.942C794.586,377.942 794.944,377.959 795.269,377.991C795.595,378.024 795.863,378.048 796.075,378.064L796.075,382.874C795.879,382.825 795.53,382.772 795.025,382.715C794.52,382.658 793.967,382.63 793.365,382.63C791.916,382.63 790.675,383.134 789.642,384.143C788.608,385.153 788.091,386.707 788.091,388.807L788.091,404.041L782.94,404.041Z" style="fill:rgb(69,69,69);fill-rule:nonzero;"/>
            <path d="M810.601,404.627C808.143,404.627 805.987,404.057 804.131,402.918C802.276,401.779 800.831,400.2 799.798,398.182C798.764,396.163 798.248,393.836 798.248,391.199C798.248,388.53 798.764,386.182 799.798,384.156C800.831,382.129 802.276,380.542 804.131,379.395C805.987,378.247 808.143,377.674 810.601,377.674C813.059,377.674 815.211,378.247 817.059,379.395C818.906,380.542 820.346,382.129 821.38,384.156C822.413,386.182 822.93,388.53 822.93,391.199C822.93,393.836 822.413,396.163 821.38,398.182C820.346,400.2 818.906,401.779 817.059,402.918C815.211,404.057 813.059,404.627 810.601,404.627ZM810.601,400.183C812.815,400.183 814.556,399.37 815.826,397.742C817.095,396.114 817.73,393.933 817.73,391.199C817.73,388.432 817.091,386.227 815.814,384.583C814.536,382.939 812.798,382.117 810.601,382.117C808.404,382.117 806.666,382.935 805.389,384.571C804.111,386.206 803.472,388.416 803.472,391.199C803.472,393.95 804.107,396.135 805.377,397.754C806.646,399.374 808.388,400.183 810.601,400.183Z" style="fill:rgb(69,69,69);fill-rule:nonzero;"/>
            <path d="M840.582,404.554C838.905,404.554 837.371,404.187 835.98,403.455C834.588,402.723 833.461,401.608 832.598,400.11L832.549,400.11L832.549,404.041L827.496,404.041L827.496,367.664L832.647,367.664L832.647,381.995L832.696,381.995C833.526,380.563 834.633,379.497 836.016,378.797C837.4,378.097 838.93,377.747 840.606,377.747C842.82,377.747 844.765,378.313 846.441,379.444C848.117,380.575 849.424,382.146 850.359,384.156C851.295,386.166 851.763,388.497 851.763,391.15C851.763,393.803 851.299,396.135 850.372,398.145C849.444,400.155 848.142,401.726 846.465,402.857C844.789,403.988 842.828,404.554 840.582,404.554ZM839.532,400.11C841.615,400.11 843.304,399.345 844.598,397.815C845.892,396.285 846.539,394.064 846.539,391.15C846.539,388.237 845.892,386.011 844.598,384.473C843.304,382.935 841.615,382.166 839.532,382.166C837.335,382.166 835.581,382.984 834.271,384.619C832.96,386.255 832.305,388.432 832.305,391.15C832.305,393.852 832.96,396.021 834.271,397.657C835.581,399.292 837.335,400.11 839.532,400.11Z" style="fill:rgb(69,69,69);fill-rule:nonzero;"/>
            <path d="M856.304,404.041L856.304,378.26L861.456,378.26L861.456,404.041L856.304,404.041ZM858.868,373.816C857.956,373.816 857.187,373.511 856.561,372.901C855.934,372.29 855.621,371.546 855.621,370.667C855.621,369.772 855.934,369.019 856.561,368.409C857.187,367.798 857.956,367.493 858.868,367.493C859.779,367.493 860.552,367.798 861.187,368.409C861.822,369.019 862.139,369.772 862.139,370.667C862.139,371.546 861.822,372.29 861.187,372.901C860.552,373.511 859.779,373.816 858.868,373.816Z" style="fill:rgb(69,69,69);fill-rule:nonzero;"/>
        </g>
        <g transform="matrix(1,0,0,1,-25.865698,382.707198)">
            <path d="M254.522,404.041L242.754,404.041L242.754,367.664L254.888,367.664C258.453,367.664 261.525,368.396 264.105,369.861C266.684,371.326 268.666,373.413 270.049,376.123C271.433,378.833 272.125,382.06 272.125,385.804C272.125,389.563 271.429,392.806 270.037,395.533C268.646,398.259 266.635,400.358 264.007,401.831C261.378,403.304 258.217,404.041 254.522,404.041ZM248.174,399.329L254.18,399.329C258.428,399.329 261.574,398.133 263.616,395.74C265.659,393.348 266.68,390.035 266.68,385.804C266.68,381.588 265.671,378.296 263.653,375.928C261.635,373.56 258.599,372.376 254.546,372.376L248.174,372.376L248.174,399.329Z" style="fill:rgb(107,107,107);fill-rule:nonzero;"/>
            <path d="M284.869,404.456C282.297,404.456 280.165,403.801 278.472,402.491C276.78,401.18 275.933,399.239 275.933,396.668C275.933,394.715 276.417,393.213 277.386,392.163C278.354,391.114 279.616,390.361 281.17,389.905C282.724,389.449 284.372,389.116 286.114,388.904C287.725,388.709 289.003,388.546 289.947,388.416C290.891,388.286 291.562,388.09 291.961,387.83C292.36,387.57 292.559,387.122 292.559,386.487L292.559,386.267C292.559,385.014 292.103,383.985 291.192,383.179C290.28,382.373 289.003,381.971 287.359,381.971C285.715,381.971 284.372,382.365 283.331,383.155C282.289,383.944 281.719,384.933 281.622,386.121L276.568,386.121C276.682,383.663 277.715,381.653 279.669,380.091C281.622,378.528 284.21,377.747 287.432,377.747C290.606,377.747 293.104,378.528 294.927,380.091C296.75,381.653 297.662,383.745 297.662,386.365L297.662,404.041L292.584,404.041L292.584,400.379L292.486,400.379C291.949,401.42 291.098,402.36 289.935,403.199C288.771,404.037 287.082,404.456 284.869,404.456ZM285.919,400.306C288.197,400.306 289.878,399.716 290.96,398.536C292.042,397.355 292.584,395.976 292.584,394.397L292.584,391.37C292.242,391.647 291.469,391.895 290.264,392.115C289.06,392.334 287.774,392.542 286.407,392.737C284.991,392.949 283.746,393.348 282.671,393.933C281.597,394.519 281.06,395.463 281.06,396.765C281.06,397.872 281.496,398.739 282.366,399.366C283.237,399.992 284.421,400.306 285.919,400.306Z" style="fill:rgb(107,107,107);fill-rule:nonzero;"/>
            <path d="M315.899,378.26L315.899,382.508L310.674,382.508L310.674,397.229C310.674,398.19 310.87,398.857 311.26,399.231C311.651,399.606 312.359,399.793 313.384,399.793L315.899,399.793L315.899,404.041L312.652,404.041C307.883,404.041 305.499,401.99 305.499,397.889L305.499,382.508L300.958,382.508L300.958,378.26L305.499,378.26L305.499,371.228L310.674,371.228L310.674,378.26L315.899,378.26Z" style="fill:rgb(107,107,107);fill-rule:nonzero;"/>
            <path d="M330.547,404.627C327.992,404.627 325.799,404.049 323.968,402.893C322.137,401.738 320.729,400.147 319.744,398.12C318.76,396.094 318.267,393.787 318.267,391.199C318.267,388.579 318.78,386.251 319.805,384.217C320.831,382.182 322.247,380.583 324.053,379.419C325.86,378.256 327.935,377.674 330.279,377.674C332.72,377.674 334.84,378.243 336.639,379.383C338.437,380.522 339.833,382.105 340.826,384.131C341.819,386.158 342.315,388.497 342.315,391.15L342.315,392.542L323.345,392.542C323.443,394.869 324.114,396.749 325.359,398.182C326.605,399.614 328.358,400.33 330.621,400.33C332.313,400.33 333.705,399.947 334.795,399.182C335.886,398.418 336.61,397.425 336.968,396.204L341.924,396.204C341.615,397.864 340.927,399.329 339.861,400.598C338.795,401.868 337.461,402.857 335.857,403.565C334.254,404.273 332.484,404.627 330.547,404.627ZM323.394,388.636L337.286,388.636C337.074,386.585 336.35,384.961 335.113,383.765C333.876,382.569 332.281,381.971 330.328,381.971C328.375,381.971 326.784,382.569 325.555,383.765C324.326,384.961 323.606,386.585 323.394,388.636Z" style="fill:rgb(107,107,107);fill-rule:nonzero;"/>
            <path d="M349.542,404.456C348.598,404.456 347.796,404.126 347.137,403.467C346.478,402.808 346.148,401.998 346.148,401.038C346.148,400.094 346.478,399.288 347.137,398.621C347.796,397.954 348.598,397.62 349.542,397.62C350.502,397.62 351.312,397.954 351.971,398.621C352.63,399.288 352.96,400.094 352.96,401.038C352.96,401.998 352.63,402.808 351.971,403.467C351.312,404.126 350.502,404.456 349.542,404.456ZM349.542,385.999C348.598,385.999 347.796,385.669 347.137,385.01C346.478,384.351 346.148,383.541 346.148,382.581C346.148,381.637 346.478,380.831 347.137,380.164C347.796,379.497 348.598,379.163 349.542,379.163C350.502,379.163 351.312,379.497 351.971,380.164C352.63,380.831 352.96,381.637 352.96,382.581C352.96,383.541 352.63,384.351 351.971,385.01C351.312,385.669 350.502,385.999 349.542,385.999Z" style="fill:rgb(107,107,107);fill-rule:nonzero;"/>
        </g>
        <g transform="matrix(0.132862,0,0,0.132862,2193.7244,276.848192)">
            <g transform="matrix(1,0,0,1,-666.666667,-835.416667)">
                <clipPath id="_clip1">
                    <rect x="0" y="0" width="1333.333" height="1670.833"/>
                </clipPath>
                <g clip-path="url(#_clip1)">
                    <g transform="matrix(4.166667,0,0,4.166667,-1468.10555,-1110.693146)">
                        <path d="M356.946,451.592C358.658,444.083 360,436.358 365.996,421.722C368.324,416.037 369.209,422.016 373.567,427.445C418.503,483.422 492.808,483.183 504.555,484.166C507.753,484.434 505.879,494.433 506.338,553.501C507.03,642.525 532.977,663.635 529.447,666.419C528.461,667.197 419.737,671.651 394.916,631.252C385.187,615.415 404.327,554.77 386.605,496.467C382.786,483.904 375.356,468.77 375.315,468.737C372.396,466.366 375.984,477.305 376.043,477.576C388.149,532.642 380.916,606.714 380.994,608.732C381.079,610.925 379.567,610.239 378.985,609.157C364.377,582 342.825,529.507 356.946,451.592Z" style="fill:rgb(32,112,210);"/>
                        <path d="M544.439,482.054C554.617,480.442 587.578,476.239 618.278,456.16C651.098,434.695 655.312,415.145 658.021,421.706C665.873,440.715 668.703,461.039 669.192,464.547C680.977,549.16 646.146,606.504 645.25,608.341C643.006,612.942 642.918,606.703 642.915,606.464C642.82,599.675 640.283,584.205 640.587,551.501C641.189,486.536 657.534,448.174 645.028,476.262C618.91,534.924 632.604,587.689 632.101,617.49C631.997,623.622 631.55,650.101 569.567,661.839C543.871,666.706 542.986,665.383 542.412,664.576C519.869,632.918 518.011,573.656 517.755,565.491C516.776,534.263 517.955,485.647 518.067,485.318C518.391,484.365 518.81,484.739 544.439,482.054Z" style="fill:rgb(32,112,210);"/>
                        <path d="M417.409,390.598C414.836,388.077 413.835,388.47 414.153,386.394C414.365,385.018 437.635,377.73 425.112,359.773C397.184,319.726 415.182,265.712 458.502,266.969C517.181,268.67 509.77,328.548 492.152,356.288C481.694,372.753 469.714,368.928 475.356,379.583C479.572,387.544 510.598,392.072 515.449,391.209C544.226,386.093 546.586,382.512 548.103,380.211C553.774,371.607 542.871,368.163 542.769,368.097C529.138,359.409 519.268,331.533 518.97,312.496C518.066,254.795 603.389,249.581 611.039,307.57C616.335,347.715 594.806,359.546 595.236,368.502C596.001,384.422 613.832,383.352 609.247,388.276C576.467,423.479 468.521,434.692 417.409,390.598Z" style="fill:rgb(32,112,210);"/>
                        <path d="M385.375,424.611C384.192,423.229 376.394,414.13 371.955,406.257C366.874,397.242 374.648,383.884 392.458,380.287C399.501,378.865 398.241,382.259 401.906,388.26C437.193,446.046 598.893,444.87 625.464,381.484C627.317,377.064 649.627,383.209 653.04,396.615C657.021,412.256 615.225,460.411 549.44,470.143C436.015,486.923 388.219,427.595 385.375,424.611Z" style="fill:rgb(32,112,210);"/>
                    </g>
                </g>
            </g>
        </g>
        <g transform="matrix(1,0,0,1,-45.444325,-229.761139)">
            <g transform="matrix(91.666667,0,0,91.666667,817.778185,898.857266)">
            </g>
            <text x="256.365px" y="898.857px" style="font-family:'InterDisplay-SemiBold', 'Inter Display';font-weight:600;font-size:91.667px;fill:rgb(14,0,0);">F<tspan x="305.734px " y="898.857px ">u</tspan>nd Balance</text>
        </g>
    </g>
</svg>
