<svg width="91" height="100" viewBox="0 0 91 100" fill="none" xmlns="http://www.w3.org/2000/svg">
<g clip-path="url(#clip0_97_1220)">
<path fill-rule="evenodd" clip-rule="evenodd" d="M18.619 80.4752C18.5289 77.8711 18.7336 53.7328 18.5062 53.515C18.2173 53.2385 5.81336 53.5267 4.96512 53.3478C0.100656 52.3217 0.00834711 48.3724 0.000272774 47.2143C-0.000163677 47.1548 5.45643e-05 13.3074 5.45643e-05 13.3013C0.0836349 2.73238 9.0431 -0.0982733 13.2651 0.0367267C13.6031 0.0475962 13.6031 0.0921614 57.5649 0.0871614C61.1342 0.0867266 74.0638 -1.40653 82.9792 7.98586C89.3003 14.6452 90.7807 20.6852 90.7818 28.3013C90.7901 85.905 90.9173 85.9043 90.7753 90.9111C90.6664 94.7439 88.1103 97.1561 86.3215 97.9828C80.4574 100.693 78.0255 96.1785 73.0669 95.2174C66.4065 93.9265 64.0285 98.923 57.3353 99.7263C47.9931 100.847 44.9006 96.0409 40.7624 95.2539C35.3009 94.2156 31.7019 97.1993 31.1018 97.5506C27.3729 99.7333 23.5162 98.6137 21.3916 96.7204C18.1387 93.8215 18.619 91.7622 18.619 80.4752ZM17.6296 46.4609C11.061 46.3706 7.21153 46.6052 7.03739 46.2826C6.92544 46.0754 6.99309 12.6028 7.00313 12.4367C7.22266 8.81064 10.5251 7.19434 12.1794 7.09564C17.5249 6.77673 18.424 11.5665 18.5442 12.2069C18.8172 13.6622 18.6217 43.2163 18.604 45.9126C18.5994 46.5898 18.3017 46.3748 17.6296 46.4609ZM74.4791 45.2587C74.0854 49.3952 71.2162 48.7826 64.1116 48.7826C37.726 48.7826 37.669 48.8317 36.8836 48.4189C33.7069 46.7487 34.4437 41.8989 38.5797 41.8272C49.1713 41.6435 67.8915 41.8043 70.4402 41.8261C71.6672 41.8367 74.0887 41.9313 74.4791 45.2587ZM65.421 32.5478C63.8637 32.5122 40.2369 32.5435 38.5782 32.5324C33.7844 32.5002 33.5513 25.518 38.7975 25.5915C38.7975 25.5915 70.6206 25.5913 70.6588 25.5915C74.3383 25.6206 74.7237 28.7343 74.3259 30.0276C73.3956 33.0526 70.6403 32.5478 65.421 32.5478ZM60.5127 61.5613C60.0371 65.5974 57.3338 64.9939 50.3634 64.9939C37.2457 64.9939 36.9591 65.1819 35.8303 63.8735C33.8647 61.5952 35.2216 58.0811 38.5788 58.0385C40.1304 58.0187 56.5462 57.8102 57.9743 58.1835C58.4712 58.3133 59.281 58.7863 59.6528 59.2504C60.5722 60.398 60.4985 61.4724 60.5127 61.5613Z" fill="#FD913F"/>
</g>
<defs>
<clipPath id="clip0_97_1220">
<rect width="91" height="100" fill="white"/>
</clipPath>
</defs>
</svg>
