<?xml version="1.0" encoding="UTF-8" standalone="no"?>
<!DOCTYPE svg PUBLIC "-//W3C//DTD SVG 1.1//EN" "http://www.w3.org/Graphics/SVG/1.1/DTD/svg11.dtd">
<svg width="100%" height="100%" viewBox="0 0 320 401" version="1.1" xmlns="http://www.w3.org/2000/svg" xmlns:xlink="http://www.w3.org/1999/xlink" xml:space="preserve" xmlns:serif="http://www.serif.com/" style="fill-rule:evenodd;clip-rule:evenodd;stroke-linejoin:round;stroke-miterlimit:2;">
    <g transform="matrix(1,0,0,1,-352.345332,-266.566355)">
        <path d="M356.946,451.592C358.658,444.083 360,436.358 365.996,421.722C368.324,416.037 369.209,422.016 373.567,427.445C418.503,483.422 492.808,483.183 504.555,484.166C507.753,484.434 505.879,494.433 506.338,553.501C507.03,642.525 532.977,663.635 529.447,666.419C528.461,667.197 419.737,671.651 394.916,631.252C385.187,615.415 404.327,554.77 386.605,496.467C382.786,483.904 375.356,468.77 375.315,468.737C372.396,466.366 375.984,477.305 376.043,477.576C388.149,532.642 380.916,606.714 380.994,608.732C381.079,610.925 379.567,610.239 378.985,609.157C364.377,582 342.825,529.507 356.946,451.592Z" style="fill:rgb(32,112,210);"/>
        <path d="M544.439,482.054C554.617,480.442 587.578,476.239 618.278,456.16C651.098,434.695 655.312,415.145 658.021,421.706C665.873,440.715 668.703,461.039 669.192,464.547C680.977,549.16 646.146,606.504 645.25,608.341C643.006,612.942 642.918,606.703 642.915,606.464C642.82,599.675 640.283,584.205 640.587,551.501C641.189,486.536 657.534,448.174 645.028,476.262C618.91,534.924 632.604,587.689 632.101,617.49C631.997,623.622 631.55,650.101 569.567,661.839C543.871,666.706 542.986,665.383 542.412,664.576C519.869,632.918 518.011,573.656 517.755,565.491C516.776,534.263 517.955,485.647 518.067,485.318C518.391,484.365 518.81,484.739 544.439,482.054Z" style="fill:rgb(32,112,210);"/>
        <path d="M417.409,390.598C414.836,388.077 413.835,388.47 414.153,386.394C414.365,385.018 437.635,377.73 425.112,359.773C397.184,319.726 415.182,265.712 458.502,266.969C517.181,268.67 509.77,328.548 492.152,356.288C481.694,372.753 469.714,368.928 475.356,379.583C479.572,387.544 510.598,392.072 515.449,391.209C544.226,386.093 546.586,382.512 548.103,380.211C553.774,371.607 542.871,368.163 542.769,368.097C529.138,359.409 519.268,331.533 518.97,312.496C518.066,254.795 603.389,249.581 611.039,307.57C616.335,347.715 594.806,359.546 595.236,368.502C596.001,384.422 613.832,383.352 609.247,388.276C576.467,423.479 468.521,434.692 417.409,390.598Z" style="fill:rgb(32,112,210);"/>
        <path d="M385.375,424.611C384.192,423.229 376.394,414.13 371.955,406.257C366.874,397.242 374.648,383.884 392.458,380.287C399.501,378.865 398.241,382.259 401.906,388.26C437.193,446.046 598.893,444.87 625.464,381.484C627.317,377.064 649.627,383.209 653.04,396.615C657.021,412.256 615.225,460.411 549.44,470.143C436.015,486.923 388.219,427.595 385.375,424.611Z" style="fill:rgb(32,112,210);"/>
    </g>
</svg>
