<?xml version="1.0" encoding="UTF-8" standalone="no"?><!DOCTYPE svg PUBLIC "-//W3C//DTD SVG 1.1//EN" "http://www.w3.org/Graphics/SVG/1.1/DTD/svg11.dtd"><svg width="100%" height="100%" viewBox="0 0 384 384" version="1.1" xmlns="http://www.w3.org/2000/svg" xmlns:xlink="http://www.w3.org/1999/xlink" xml:space="preserve" xmlns:serif="http://www.serif.com/" style="fill-rule:evenodd;clip-rule:evenodd;stroke-linejoin:round;stroke-miterlimit:2;"><g id="Background"><path d="M147.416,20.269c27.697,5.453 24.549,26.687 24.549,46.856c0,128.672 0.175,128.779 -1.348,133.497c-7.451,23.083 -32.933,19.343 -41.991,19.343c-84.881,-0 -85.015,0.217 -89.917,-1.572c-22.053,-8.049 -18.672,-29.916 -18.672,-45.517c-0,-129.158 -0.204,-129.306 1.565,-134.169c8.018,-22.038 30.672,-18.67 41.774,-18.67c79.003,0 78.927,-0.028 84.041,0.233Z" style="fill:#2070d2;fill-opacity:1;"/><path d="M339.416,164.269c27.697,5.453 24.549,26.687 24.549,46.856c0,128.672 0.175,128.779 -1.348,133.497c-7.451,23.083 -32.933,19.343 -41.991,19.343c-84.881,0 -85.015,0.217 -89.917,-1.572c-22.053,-8.049 -18.672,-29.916 -18.672,-45.517c0,-129.158 -0.204,-129.306 1.565,-134.169c8.018,-22.037 30.67,-18.67 41.774,-18.67c79.007,-0 78.93,-0.028 84.041,0.233Z" style="fill:#2070d2;fill-opacity:1;"/><path d="M44.584,363.728c-26.064,-5.15 -24.548,-25.167 -24.548,-36.353c0,-62.453 -0.749,-63.224 4.694,-71.011c10.108,-14.461 20.334,-12.4 57.395,-12.4c67.87,0 68.466,-0.61 76.391,4.092c15.759,9.35 13.449,28.236 13.449,28.319c0.007,66.204 0.577,66.756 -3.941,74.039c-9.563,15.415 -25.873,13.55 -28.148,13.55c-93.338,0.017 -93.34,-0.085 -95.291,-0.237Z" style="fill:#2070d2;fill-opacity:1;"/><path d="M339.416,20.269c27.957,5.002 24.549,29.645 24.549,42.356c0,57.026 0.943,58.02 -5.955,66.66c-9.956,12.468 -16.643,10.751 -64.384,10.751c-60.439,0 -61.227,0.785 -69.534,-4.97c-14.178,-9.821 -12.055,-22.055 -12.055,-51.441c-0,-42.274 -1.628,-46.921 10.509,-57.533c8.068,-7.053 10.306,-6.056 73.33,-6.056c40.099,0 40.058,-0.034 43.541,0.233Z" style="fill:#2070d2;fill-opacity:1;"/></g></svg>