<?xml version="1.0" encoding="UTF-8" standalone="no"?><!DOCTYPE svg PUBLIC "-//W3C//DTD SVG 1.1//EN" "http://www.w3.org/Graphics/SVG/1.1/DTD/svg11.dtd"><svg width="100%" height="100%" viewBox="0 0 301 361" version="1.1" xmlns="http://www.w3.org/2000/svg" xmlns:xlink="http://www.w3.org/1999/xlink" xml:space="preserve" xmlns:serif="http://www.serif.com/" style="fill-rule:evenodd;clip-rule:evenodd;stroke-linejoin:round;stroke-miterlimit:2;"><g id="Background"><path d="M233.655,0.106c33.925,0 45.044,-2.187 58.292,13.266c9.513,11.097 8.058,20.732 8.058,59.833c-0,254.783 0.108,254.799 -0.88,258.804c-8.19,33.187 -44.779,28.045 -45.219,28.045c-204.661,-0 -212.647,-0.021 -216.749,0.053c-12.876,0.231 -36.979,-7.988 -37.1,-37.902c-0.033,-8.126 0.068,-278.118 -0.051,-284.999c-0.231,-13.402 8.36,-36.976 37.9,-37.1c65.25,-0 130.5,-0 195.75,-0Zm-15,263.949c1.51,0.053 3.022,0.052 4.532,0.105c13.457,0.476 15.494,24.219 -2.282,23.945c-8.065,-0.124 -101.235,-0.014 -105.751,-0.052c-15.817,-0.131 -16.58,-18.271 -6.023,-22.901c2.827,-1.24 2.96,-1.098 109.524,-1.098Zm-101.25,-180c11.073,0.127 90.326,0.015 103.501,0.052c18.216,0.052 15.89,23.599 1.486,23.982c-24.522,0.652 -98.66,0.036 -107.239,-0.035c-13.78,-0.114 -15.587,-13.546 -10.3,-19.681c4.638,-5.382 11.485,-4.28 12.551,-4.318Zm101.25,84.051c-11.097,-0.128 -91.107,-0.014 -103.501,-0.052c-17.906,-0.055 -16.986,-24.269 0.002,-23.999c7.772,0.124 101.074,0.015 105.75,0.052c13.542,0.107 14.542,12.515 11.758,17.473c-4.398,7.834 -12.627,6.476 -14.009,6.526Zm0,60c-11.097,-0.128 -91.107,-0.014 -103.501,-0.052c-17.906,-0.055 -16.986,-24.269 0.002,-23.999c7.772,0.124 101.074,0.015 105.75,0.052c13.542,0.107 14.542,12.515 11.758,17.473c-4.398,7.834 -12.627,6.476 -14.009,6.526Zm-140.256,-120.024c-0.652,-0.107 -7.213,0.349 -10.994,-6.506c-7.098,-12.87 13.246,-25.505 21.252,-10.993c1.803,3.269 3.71,15.513 -10.259,17.499Zm-0,60c-0.652,-0.107 -7.213,0.349 -10.994,-6.506c-7.098,-12.87 13.246,-25.505 21.252,-10.993c1.803,3.269 3.71,15.513 -10.259,17.499Zm0,60c-0.652,-0.107 -7.213,0.349 -10.994,-6.506c-7.098,-12.87 13.246,-25.505 21.252,-10.993c1.803,3.269 3.71,15.513 -10.259,17.499Zm0,60c-0.652,-0.107 -7.213,0.349 -10.994,-6.506c-7.098,-12.87 13.246,-25.505 21.252,-10.993c1.803,3.269 3.71,15.513 -10.259,17.499Z" style="fill:#2070d2;fill-opacity:1;"/></g></svg>