<?xml version="1.0" encoding="UTF-8" standalone="no"?><!DOCTYPE svg PUBLIC "-//W3C//DTD SVG 1.1//EN" "http://www.w3.org/Graphics/SVG/1.1/DTD/svg11.dtd"><svg width="100%" height="100%" viewBox="0 0 384 384" version="1.1" xmlns="http://www.w3.org/2000/svg" xmlns:xlink="http://www.w3.org/1999/xlink" xml:space="preserve" xmlns:serif="http://www.serif.com/" style="fill-rule:evenodd;clip-rule:evenodd;stroke-linejoin:round;stroke-miterlimit:2;"><g id="Background"><path d="M59.593,363.729c-3.033,-0.446 -21.903,-3.22 -32.653,-20.049c-8.016,-12.549 -6.906,-14.733 -6.906,-79.305c-0,-20.929 -2.114,-39.183 10.59,-53.027c16.151,-17.6 29.894,-15.384 58.25,-15.384c61.356,0 67.484,-1.302 80.118,7.85c19.902,14.418 19.038,33.689 19.043,40.31c0.004,6.12 0.049,73.226 -0.024,76.504c-0.417,18.658 -13.065,38.844 -37.61,42.91c-4.698,0.778 -86.666,0.487 -90.808,0.19Zm79.193,-108.31c0.094,9.62 -3.621,9.888 -16.674,23.422c-4.176,4.33 24.884,15.97 14.515,31.105c-3.575,5.219 -12.469,7.137 -18.254,1.418c-12.129,-11.991 -13.757,-15.029 -15.782,-13.015c-12.277,12.213 -18.041,21.221 -28.768,14.093c-1.791,-1.19 -9.526,-9.537 -0.552,-18.671c10.461,-10.648 14.406,-13.059 12.488,-15.038c-9.787,-10.1 -21.58,-17.611 -14.594,-28.409c1.306,-2.019 9.634,-10.288 19.185,-0.925c11.961,11.726 13.097,14.168 14.814,12.492c10.807,-10.549 17.463,-20.959 27.771,-15.191c4.27,2.389 5.647,7.904 5.851,8.719Z" style="fill:#2070d2;fill-opacity:1;"/><path d="M324.407,363.728c-4.208,0.301 -86.241,0.584 -90.808,-0.187c-18.226,-3.08 -37.477,-17.321 -37.634,-45.166c-0.469,-83.134 -0.092,-84.391 2.005,-91.398c4.683,-15.646 19.446,-28.596 36.44,-30.592c1.45,-0.17 85.679,-1.704 95.886,0.84c33.393,8.321 33.635,40.176 33.669,44.65c0.05,6.597 0.546,71.684 -0.183,82.47c-0.483,7.154 -4.682,18.916 -12.674,26.763c-12.242,12.021 -26.368,12.566 -26.701,12.62Zm-0.4,-59.606c-1.635,13.924 -10.926,11.842 -34.881,11.842c-45.083,0 -46.068,0.649 -49.947,-3.865c-6.755,-7.86 -2.092,-19.984 9.446,-20.131c5.332,-0.068 61.75,-0.788 66.658,0.5c1.708,0.448 4.491,2.08 5.769,3.681c3.159,3.959 2.906,7.666 2.955,7.973Zm-0,-48c-1.635,13.924 -10.926,11.842 -34.881,11.842c-45.083,0 -46.068,0.649 -49.947,-3.865c-6.755,-7.86 -2.092,-19.984 9.446,-20.131c5.332,-0.068 61.75,-0.788 66.658,0.5c1.708,0.448 4.491,2.08 5.769,3.681c3.159,3.959 2.906,7.666 2.955,7.973Z" style="fill:#2070d2;fill-opacity:1;"/><path d="M59.594,20.266c3.679,-0.265 3.629,-0.231 39.031,-0.231c34.755,0 44.798,-0 44.999,0.003c23.412,0.351 44.096,16.715 44.412,45.587c0.068,6.24 0.518,47.372 -0.005,78.002c-0.495,28.995 -23.661,42.253 -37.7,43.913c-6.789,0.803 -8.978,1.062 -85.455,0.495c-24.819,-0.184 -40.06,-17.408 -43.887,-34.739c-1.874,-8.484 -0.895,-93.895 -0.502,-95.944c6.72,-35.029 38.878,-37.053 39.108,-37.086Zm0.398,83.611c0.409,-3.587 1.832,-11.771 13.134,-11.84c0.221,-0.001 61.885,-0.004 62.248,0.002c11.114,0.195 14.111,9.933 11.792,16.254c-3.494,9.524 -16.073,7.742 -16.29,7.742c-61.041,0.002 -61.194,0.151 -63.668,-1.086c-7.308,-3.651 -6.935,-9.314 -7.215,-11.073Z" style="fill:#2070d2;fill-opacity:1;"/><path d="M363.729,59.593c0.298,4.138 0.589,86.143 -0.191,90.808c-4.101,24.52 -24.214,37.207 -42.908,37.614c-6.119,0.133 -6.095,0.043 -76.504,0.021c-3.581,-0.001 -17.666,1.067 -31.279,-9.457c-19.941,-15.416 -16.881,-37.833 -16.881,-58.204c0,-65.527 -1.385,-69.119 8.886,-82.703c15.478,-20.469 34.869,-17.637 58.775,-17.637c66.315,0 67.261,-1.076 80.057,6.901c16.806,10.475 19.603,29.624 20.046,32.657Zm-95.905,57.162c-3.654,-2.121 -21.894,3.139 -23.718,-11.378c-0.284,-2.258 0.14,-13.162 12.77,-13.339c4.862,-0.068 11.047,0.846 11.084,-1.673c0.057,-3.95 -2.764,-22.101 12.163,-22.294c3.092,-0.04 11.726,2.063 11.836,12.557c0.06,5.753 -0.79,11.35 1.654,11.402c6.748,0.145 18.514,-2.262 21.933,8.796c1.621,5.245 -1.423,15.058 -12.169,15.206c-6.198,0.085 -11.401,-1.03 -11.412,2.091c-0.023,6.661 2.184,19.442 -10.344,21.724c-4.2,0.765 -13.555,-1.827 -13.654,-12.72c-0.043,-4.731 0.15,-7.51 -0.143,-10.371Z" style="fill:#2070d2;fill-opacity:1;"/></g></svg>