<?xml version="1.0" encoding="UTF-8" standalone="no"?><!DOCTYPE svg PUBLIC "-//W3C//DTD SVG 1.1//EN" "http://www.w3.org/Graphics/SVG/1.1/DTD/svg11.dtd"><svg width="100%" height="100%" viewBox="0 0 384 384" version="1.1" xmlns="http://www.w3.org/2000/svg" xmlns:xlink="http://www.w3.org/1999/xlink" xml:space="preserve" xmlns:serif="http://www.serif.com/" style="fill-rule:evenodd;clip-rule:evenodd;stroke-linejoin:round;stroke-miterlimit:2;"><g id="Background"><path d="M0,307.125l-0,-230.25c0.104,-0.352 0.649,-0.45 0.753,-0.802c0.211,-0.718 0.034,-1.5 0.143,-2.24c3.424,-23.237 22.614,-48.017 51.304,-54.349c8.219,-1.814 8.258,-1.603 150.675,-1.603c91.223,-0 92.332,-1.057 107.866,6.774c43.12,21.738 37.53,67.461 37.508,71.718c-0.012,2.332 -1.278,1.851 -19.373,1.851c-63.898,-0 -77.665,-1.918 -102.212,12.039c-73.063,41.543 -59.072,147.954 18.909,171.543c24.387,7.377 75.883,2.648 101.278,3.924c2.018,0.101 1.409,6.186 1.399,10.145c-0.135,53.643 -42.491,69.352 -64.385,70.188c-8.798,0.336 -198.708,0.078 -215.987,0.055c-48.193,-0.065 -66.126,-42.403 -67.06,-56.693c-0.083,-1.269 -0.404,-1.138 -0.816,-2.3Z" style="fill:#2070d2;fill-opacity:1;"/><path d="M383.999,142.125l0,99.75c-0.489,1.177 -0.665,1.051 -0.954,2.296c-3.392,14.609 -17.333,22.975 -27.2,23.586c-1.327,0.082 -84.807,0.387 -90.741,-0.179c-67.579,-6.448 -94.791,-94.451 -37.233,-137.11c22.96,-17.017 46.267,-14.337 77.003,-14.337c55.842,-0 56.822,-0.983 66.479,6.11c1.362,1 9.178,6.741 11.693,17.587c0.291,1.253 0.467,1.128 0.952,2.297Zm-93.826,48.73c-1.193,31.235 -43.509,19.492 -34.513,-5.124c4.896,-13.396 29.649,-19.596 34.513,5.124Z" style="fill:#2070d2;fill-opacity:1;"/></g></svg>