<svg width="36" height="36" viewBox="0 0 36 36" fill="none" xmlns="http://www.w3.org/2000/svg">
<path fill-rule="evenodd" clip-rule="evenodd" d="M26.3627 11.246C25.2377 12.371 24.1127 13.496 22.9877 14.621C22.8077 14.801 20.7377 16.871 20.7377 16.871C19.4252 18.1835 18.1127 19.496 16.8002 20.8085C16.742 20.8695 14.7634 22.8503 14.5862 23.0277C14.4636 23.1444 14.4649 23.1438 11.3159 26.2929C10.9194 26.6893 6.53153 31.0771 6.34937 31.2373C5.38703 32.0828 3.71069 30.7151 4.89766 29.5074C6.14997 28.2332 9.30578 25.1584 9.28572 25.0675C9.21765 24.7596 4.47606 20.9699 3.78578 19.8488C3.31647 19.0864 2.66781 17.0255 4.48084 15.3103C4.555 15.2401 9.72775 10.5992 10.1081 10.251C11.1137 9.3305 14.8108 5.83503 20.8485 7.34572C22.853 7.84728 24.4825 9.06744 24.762 9.27669C24.8659 9.35459 24.9266 9.48284 25.1146 9.29441C29.7561 4.64169 29.7636 4.6085 30.1266 4.52516C31.0998 4.30184 32.0812 5.50259 31.1031 6.49419C31.0126 6.58597 27.0407 10.5439 26.3629 11.246H26.3627ZM18.0349 14.6283C15.1808 14.7213 14.1587 17.3401 14.8321 19.1487C14.9991 19.5973 14.8211 19.5859 14.4712 19.9339C13.5226 20.8775 13.3373 21.1581 13.2114 20.9696C11.468 18.3598 12.3684 13.1075 17.4018 12.4072C19.0371 12.1797 21.2025 13.1204 21.0316 13.3762C21.0247 13.3864 20.036 14.3614 19.6299 14.7788C19.5698 14.8406 19.4782 14.9695 19.3144 14.9068C18.6946 14.6693 18.6982 14.6589 18.0348 14.6282L18.0349 14.6283Z" fill="black"/>
<path fill-rule="evenodd" clip-rule="evenodd" d="M18.0349 23.6274C22.021 23.4195 23.8902 20.3054 23.5712 17.3343C23.5516 17.1519 23.9451 16.8208 24.0388 16.7272C25.4214 15.3444 26.8041 13.9615 28.1868 12.5786C28.3688 12.3961 28.4973 12.5899 28.6324 12.7142C29.1471 13.1873 31.3216 15.1198 31.5907 15.3791C33.0209 16.7559 32.9913 18.7474 32.0763 20.0606C31.6644 20.6517 31.6322 20.6301 25.4418 26.1494C21.1901 29.9403 16.1085 29.3345 13.3109 27.9775C13.0835 27.8672 12.8917 27.8769 13.0705 27.6935C13.3923 27.3635 15.653 25.0447 17.1473 23.622C17.1988 23.5731 17.2098 23.5625 18.035 23.6275L18.0349 23.6274Z" fill="black"/>
<path fill-rule="evenodd" clip-rule="evenodd" d="M20.7378 16.8711C20.0375 17.5808 17.5024 20.1159 16.8003 20.8086C18.1128 19.4961 19.4253 18.1836 20.7378 16.8711Z" fill="black" fill-opacity="0.47"/>
<path fill-rule="evenodd" clip-rule="evenodd" d="M26.3628 11.2461C26.1623 11.4525 23.91 13.7112 22.9878 14.6211C24.1128 13.4961 25.2378 12.3711 26.3628 11.2461Z" fill="black" fill-opacity="0.47"/>
<path fill-rule="evenodd" clip-rule="evenodd" d="M14.5862 23.0273C11.4371 26.1764 11.4384 26.1758 11.3159 26.2925C14.465 23.1434 14.4637 23.144 14.5862 23.0273Z" fill="black" fill-opacity="0.48"/>
</svg>
