<svg width="26" height="23" viewBox="0 0 26 23" fill="none" xmlns="http://www.w3.org/2000/svg">
<path d="M14.9684 22.0632C21.0176 22.0632 26 17.0702 26 11.0316C26 4.99302 20.9963 0 14.9577 0C9.34592 0 4.65162 4.29955 4.02216 9.75133C4.68363 9.60197 5.55847 9.55929 6.26262 9.67665C6.89208 5.43045 10.5195 2.20845 14.9577 2.20845C19.8547 2.20845 23.8022 6.13459 23.8022 11.0316C23.8022 13.3681 22.906 15.4805 21.4231 17.0488C20.3242 15.8326 17.9984 14.723 14.9577 14.723C14.0082 14.723 13.1227 14.8297 12.3225 15.0217C12.4506 15.5339 12.5146 16.0673 12.5146 16.6114C12.5146 18.3504 11.8424 19.9614 10.7542 21.2097C12.0558 21.7538 13.4854 22.0632 14.9684 22.0632ZM14.9577 12.9733C17.0275 12.984 18.6385 11.2236 18.6385 8.9405C18.6385 6.78539 17.0168 4.98236 14.9577 4.98236C12.9093 4.98236 11.2663 6.78539 11.2876 8.9405C11.2983 11.2236 12.888 12.952 14.9577 12.9733ZM5.49446 22.1165C8.48174 22.1165 10.9889 19.62 10.9889 16.6114C10.9889 13.6028 8.51375 11.1169 5.49446 11.1169C2.48584 11.1169 0 13.6028 0 16.6114C0 19.6307 2.48584 22.1165 5.49446 22.1165ZM2.00574 16.6114C2.00574 16.174 2.30447 15.8859 2.7419 15.8859H4.75831V13.8695C4.75831 13.4321 5.04637 13.1334 5.49446 13.1334C5.94255 13.1334 6.23061 13.4321 6.23061 13.8695V15.8859H8.24703C8.68445 15.8859 8.98318 16.174 8.98318 16.6114C8.98318 17.0595 8.68445 17.3476 8.24703 17.3476H6.23061V19.3746C6.23061 19.8121 5.94255 20.1108 5.49446 20.1108C5.04637 20.1108 4.75831 19.8121 4.75831 19.3746V17.3476H2.7419C2.30447 17.3476 2.01641 17.0595 2.00574 16.6114Z" fill="#1C1C1E"/>
</svg>
