<svg width="118" height="101" viewBox="0 0 118 101" fill="none" xmlns="http://www.w3.org/2000/svg">
<path d="M67.9335 100.133C95.3878 100.133 118 77.4723 118 50.0665C118 22.6606 95.2909 0 67.8851 0C42.4161 0 21.1112 19.5133 18.2544 44.2561C21.2565 43.5782 25.2269 43.3845 28.4227 43.9171C31.2794 24.6459 47.7423 10.023 67.8851 10.023C90.11 10.023 108.025 27.8416 108.025 50.0665C108.025 60.6705 103.958 70.2577 97.2277 77.3755C92.2405 71.8556 81.6849 66.8199 67.8851 66.8199C63.5757 66.8199 59.5568 67.3041 55.9253 68.1756C56.5064 70.4998 56.7969 72.9208 56.7969 75.3902C56.7969 83.2827 53.7464 90.5942 48.8075 96.2593C54.7148 98.7288 61.2031 100.133 67.9335 100.133ZM67.8851 58.8789C77.2786 58.9274 84.5901 50.938 84.5901 40.5761C84.5901 30.7952 77.2302 22.6122 67.8851 22.6122C58.5884 22.6122 51.1317 30.7952 51.2286 40.5761C51.277 50.938 58.4916 58.7821 67.8851 58.8789ZM24.9364 100.375C38.494 100.375 49.8728 89.0447 49.8728 75.3902C49.8728 61.7357 38.6393 50.4538 24.9364 50.4538C11.2819 50.4538 0 61.7357 0 75.3902C0 89.0931 11.2819 100.375 24.9364 100.375ZM9.103 75.3902C9.103 73.405 10.4588 72.0977 12.444 72.0977H21.5954V62.9462C21.5954 60.961 22.9028 59.6053 24.9364 59.6053C26.97 59.6053 28.2774 60.961 28.2774 62.9462V72.0977H37.4288C39.414 72.0977 40.7698 73.405 40.7698 75.3902C40.7698 77.4239 39.414 78.7312 37.4288 78.7312H28.2774V87.9311C28.2774 89.9163 26.97 91.2721 24.9364 91.2721C22.9028 91.2721 21.5954 89.9163 21.5954 87.9311V78.7312H12.444C10.4588 78.7312 9.15142 77.4239 9.103 75.3902Z" fill="#2070D2"/>
</svg>
