<?xml version="1.0" encoding="UTF-8" standalone="no"?><!DOCTYPE svg PUBLIC "-//W3C//DTD SVG 1.1//EN" "http://www.w3.org/Graphics/SVG/1.1/DTD/svg11.dtd"><svg width="100%" height="100%" viewBox="0 0 36 36" version="1.1" xmlns="http://www.w3.org/2000/svg" xmlns:xlink="http://www.w3.org/1999/xlink" xml:space="preserve" xmlns:serif="http://www.serif.com/" style="fill-rule:evenodd;clip-rule:evenodd;stroke-linejoin:round;stroke-miterlimit:2;"><g id="Background"><path d="M10.902,23.447c0.019,-0.218 0.077,-1.29 0.753,-2.59c0.698,-1.341 2.095,-2.586 2.36,-2.382c0.361,0.278 2.565,1.974 5.573,1.199c1.851,-0.477 2.353,-1.401 2.652,-1.196c3.001,2.061 3.261,5.862 2.586,7.278c-1.103,2.314 -3.366,1.997 -4.541,1.997c-6.74,0 -6.797,0.069 -7.721,-0.459c-2.092,-1.197 -1.668,-3.723 -1.663,-3.847Z" style="fill-opacity:1;"/><path d="M18.672,18.702c-6.1,0.612 -8.036,-7.299 -3.09,-9.862c4.619,-2.394 9.616,2.775 6.926,7.351c-0.594,1.011 -1.449,1.579 -1.604,1.682c-0.913,0.607 -2.044,0.797 -2.232,0.828Z" style="fill-opacity:1;"/><path d="M3.448,11.565c0.429,-4.729 6.292,-5.273 8.091,-1.812c1.905,3.666 -1.675,7.267 -5.039,6.186c-3.085,-0.992 -3.056,-3.948 -3.052,-4.374Z" style="fill-opacity:1;"/><path d="M32.552,11.565c0.052,5.261 -6.663,6.089 -8.34,1.764c-1.62,-4.182 3.863,-8.071 7.297,-4.34c0.926,1.006 1.026,2.355 1.042,2.577Z" style="fill-opacity:1;"/><path d="M8.051,22.498c-3.134,0 -4.021,0.181 -5.119,-1.099c-1.894,-2.206 0.719,-5.918 1.188,-5.551c0.127,0.1 0.817,0.798 2.11,1.182c3.041,0.902 5.215,-1.225 5.266,-1.224c0.251,0.004 1.555,1.675 1.336,1.948c-0.084,0.105 -2.084,1.411 -2.834,4.284c-0.094,0.359 -0.038,0.415 -0.181,0.454c-0.033,0.009 -0.28,0.007 -1.766,0.007Z" style="fill-opacity:1;"/><path d="M27.176,22.498c-0.724,-0 -1.046,0.036 -1.083,-0.091c-0.445,-1.548 -0.723,-2.787 -2.883,-4.622c-0.336,-0.285 1.118,-2.085 1.35,-1.971c0.455,0.224 1.275,1.513 4.09,1.419c0.853,-0.028 2.117,-0.47 2.931,-1.128c0.278,-0.225 0.285,-0.449 0.558,-0.216c1.864,1.592 2.496,5.323 -0.329,6.416c-0.582,0.225 -0.595,0.193 -4.633,0.193Z" style="fill-opacity:1;"/></g></svg>