<?xml version="1.0" encoding="UTF-8" standalone="no"?>
<!DOCTYPE svg PUBLIC "-//W3C//DTD SVG 1.1//EN" "http://www.w3.org/Graphics/SVG/1.1/DTD/svg11.dtd">
<svg width="100%" height="100%" viewBox="0 0 481 481" version="1.1" xmlns="http://www.w3.org/2000/svg" xmlns:xlink="http://www.w3.org/1999/xlink" xml:space="preserve" xmlns:serif="http://www.serif.com/" style="fill-rule:evenodd;clip-rule:evenodd;stroke-linejoin:round;stroke-miterlimit:2;">
    <g transform="matrix(1,0,0,1,-15.747899,-15.901618)">
        <g id="Background" transform="matrix(1,0,0,1,14,14)">
            <path d="M431.27,392.27C423.846,399.68 416.422,407.09 408.998,414.5L405.998,417.5C391.841,431.723 377.764,451.033 353.691,441.061C341.664,436.078 333.126,419.837 328.683,421.91C319.277,426.299 319.372,426.29 309.647,429.947C304.32,431.949 306.801,433.945 306.02,450.487C305.021,471.634 288.567,481.808 274.516,481.951C204.451,482.659 202.344,481.703 196.669,479.128C168.952,466.55 181.812,432.598 176.456,430.597C165.931,426.665 166.147,426.272 155.601,422.248C148.965,419.716 134.525,453.445 104.696,441.049C98.402,438.434 95.134,434.728 78.264,417.736C71.93,411.403 65.597,405.07 59.264,398.736L55.984,395.5C53.213,392.726 33.072,377.479 42.91,353.678C47.816,341.809 64.166,333.107 62.101,328.672C57.244,318.246 57.804,318.112 53.167,307.674C50.798,302.34 14.348,315.892 3.429,283.523C1.229,277.002 1.147,207.508 3.427,200.476C13.678,168.853 50.926,180.858 53.039,177.164C53.927,175.613 52.862,175.176 61.364,156.437C63.367,152.021 58.337,149.579 49.728,140.288C37.01,126.562 36.534,107.992 50.738,93.739C96.209,48.112 96.06,47.97 100.783,44.981C122.015,31.547 138.971,48.402 141.292,50.71C148.696,58.069 152.63,63.368 155.336,62.105C165.352,57.431 165.25,57.438 175.564,53.661C182.672,51.057 167.458,14.572 200.476,3.427C208.175,0.828 243.544,2.427 272.501,2.035C291.713,1.774 305.666,15.004 305.961,34.493C306.215,51.249 304.83,52.379 307.565,53.353C318.187,57.14 317.913,57.644 328.406,61.721C334.866,64.231 347.671,34.083 374.548,41.323C384.893,44.11 384.627,45.218 430.27,90.73C431.236,91.692 443.752,101.488 443.768,117.5C443.791,140.55 419.217,149.553 421.901,155.327C426.723,165.701 426.174,165.871 430.837,176.324C433.238,181.704 469.644,168.036 480.559,200.481C482.887,207.4 482.61,275.249 480.823,282.588C478.304,292.929 467.406,305.78 450.516,305.951C438.119,306.076 431.503,305.165 430.618,307.554C426.7,318.138 426.221,317.836 422.259,328.401C419.769,335.038 452.298,348.975 441.736,377.587C438.752,385.67 433.579,389.872 431.27,392.27ZM242.5,113.966C375.071,118.064 412.641,281.095 313.753,347.879C221.336,410.294 100.166,332.623 115.186,224.452C121.58,178.405 159.472,116.027 242.5,113.966Z" style="fill:rgb(32,112,210);fill-opacity:1;"/>
            <path d="M242.507,146.043C355.999,150.523 371.206,300.844 270.554,333.666C195.887,358.014 120.51,281.055 153.934,203.689C169.207,168.335 204.27,147.264 237.48,146.107C239.155,146.049 240.832,146.101 242.507,146.043Z" style="fill:rgb(32,112,210);fill-opacity:1;"/>
            <path d="M431.27,392.27C423.937,399.604 416.604,406.937 409.27,414.27L408.998,414.5C416.422,407.09 423.846,399.68 431.27,392.27Z" style="fill:rgb(32,112,210);fill-opacity:0.51;"/>
            <path d="M58.984,398.5L59.264,398.736C65.597,405.07 71.93,411.403 78.264,417.736C71.837,411.324 65.41,404.912 58.984,398.5Z" style="fill:rgb(32,112,210);fill-opacity:0.49;"/>
            <path d="M55.984,395.5L59.264,398.736L58.984,398.5L55.984,395.5Z" style="fill:rgb(32,112,210);fill-opacity:0.49;"/>
            <path d="M408.998,414.5L409.27,414.27L405.998,417.5L408.998,414.5Z" style="fill:rgb(32,112,210);fill-opacity:0.51;"/>
        </g>
    </g>
</svg>
