<?xml version="1.0" encoding="UTF-8" standalone="no"?><!DOCTYPE svg PUBLIC "-//W3C//DTD SVG 1.1//EN" "http://www.w3.org/Graphics/SVG/1.1/DTD/svg11.dtd"><svg width="100%" height="100%" viewBox="0 0 384 384" version="1.1" xmlns="http://www.w3.org/2000/svg" xmlns:xlink="http://www.w3.org/1999/xlink" xml:space="preserve" xmlns:serif="http://www.serif.com/" style="fill-rule:evenodd;clip-rule:evenodd;stroke-linejoin:round;stroke-miterlimit:2;"><g id="Background"><path d="M333.953,304.703c-5.568,5.557 -11.136,11.115 -16.704,16.672l-2.25,2.25c-10.618,10.667 -21.176,25.15 -39.231,17.671c-9.02,-3.737 -15.423,-15.918 -18.755,-14.363c-7.055,3.292 -6.983,3.285 -14.277,6.028c-3.995,1.502 -2.134,2.998 -2.721,15.405c-0.749,15.861 -13.089,23.491 -23.628,23.598c-52.549,0.532 -54.129,-0.186 -58.385,-2.117c-20.788,-9.434 -11.143,-34.898 -15.16,-36.398c-7.893,-2.949 -7.731,-3.243 -15.641,-6.261c-4.977,-1.899 -15.807,23.397 -38.179,14.101c-4.72,-1.961 -7.172,-4.741 -19.824,-17.485c-4.75,-4.75 -9.5,-9.5 -14.25,-14.25l-2.46,-2.427c-2.078,-2.08 -17.184,-13.516 -9.805,-31.367c3.68,-8.902 15.942,-15.428 14.393,-18.754c-3.642,-7.819 -3.222,-7.92 -6.7,-15.749c-1.777,-4 -29.114,6.163 -37.303,-18.113c-1.65,-4.891 -1.712,-57.011 -0.002,-62.285c7.688,-23.717 35.624,-14.713 37.21,-17.484c0.666,-1.163 -0.133,-1.491 6.243,-15.545c1.502,-3.312 -2.27,-5.144 -8.726,-12.112c-9.539,-10.294 -9.896,-24.222 0.757,-34.912c34.103,-34.22 33.992,-34.327 37.534,-36.568c15.924,-10.076 28.641,2.566 30.382,4.296c5.553,5.52 8.504,9.493 10.533,8.547c7.513,-3.506 7.436,-3.5 15.171,-6.334c5.331,-1.953 -6.079,-29.316 18.684,-37.675c5.774,-1.949 32.301,-0.75 54.019,-1.044c14.409,-0.195 24.874,9.727 25.095,24.344c0.19,12.567 -0.848,13.414 1.203,14.145c7.966,2.84 7.761,3.218 15.631,6.276c4.845,1.882 14.448,-20.728 34.606,-15.298c7.759,2.09 7.56,2.921 41.792,37.055c0.724,0.722 10.111,8.069 10.123,20.078c0.017,17.287 -18.414,24.04 -16.401,28.37c3.617,7.781 3.205,7.908 6.702,15.748c1.8,4.035 29.105,-6.216 37.291,18.118c1.746,5.189 1.539,56.076 0.198,61.58c-1.889,7.755 -10.063,17.394 -22.73,17.522c-9.298,0.094 -14.26,-0.589 -14.923,1.203c-2.939,7.938 -3.298,7.712 -6.27,15.635c-1.867,4.978 22.529,15.431 14.608,36.89c-2.238,6.062 -6.117,9.214 -7.849,11.013Zm-141.578,-208.728c99.428,3.073 127.606,125.347 53.44,175.435c-69.313,46.811 -160.191,-11.442 -148.925,-92.57c4.796,-34.536 33.214,-81.319 95.485,-82.865Z" style="fill-opacity:1;"/><path d="M192.38,120.032c85.119,3.36 96.524,116.101 21.036,140.717c-56,18.261 -112.533,-39.458 -87.465,-97.483c11.455,-26.515 37.752,-42.319 62.66,-43.187c1.256,-0.044 2.514,-0.004 3.77,-0.048Z" style="fill-opacity:1;"/><path d="M333.953,304.703c-5.5,5.5 -11,11 -16.5,16.5l-0.204,0.172c5.568,-5.557 11.136,-11.115 16.704,-16.672Z" style="fill-opacity:0.51;"/><path d="M54.738,309.375l0.21,0.177c4.75,4.75 9.5,9.5 14.25,14.25c-4.82,-4.809 -9.64,-9.618 -14.46,-14.427Z" style="fill-opacity:0.49;"/><path d="M52.488,307.125l2.46,2.427l-0.21,-0.177l-2.25,-2.25Z" style="fill-opacity:0.49;"/><path d="M317.249,321.375l0.204,-0.172l-2.454,2.422l2.25,-2.25Z" style="fill-opacity:0.51;"/></g></svg>