<svg width="36" height="36" viewBox="0 0 36 36" fill="none" xmlns="http://www.w3.org/2000/svg">
<path fill-rule="evenodd" clip-rule="evenodd" d="M18.9513 27.9823C13.4181 28.2421 11.1395 26.0571 7.93933 23.3449C4.38798 20.335 4.37458 20.3165 4.13608 19.9882C3.48349 19.0897 2.83445 16.9919 4.79195 15.3346C10.9438 10.1263 11.3882 9.52738 14.245 8.56316C17.2516 7.54841 21.8516 7.67113 25.5385 10.5381C26.0139 10.9077 25.972 10.9455 31.2841 15.3993C32.691 16.5789 33.1848 18.9877 31.2087 20.6671C24.8146 26.1014 24.2889 26.7169 21.1999 27.6004C20.3252 27.8505 19.1329 27.9649 18.9513 27.9823V27.9823ZM18.035 23.6271C11.0005 23.3469 10.4248 13.87 16.9783 12.4694C20.688 11.6767 24.8674 15.3718 23.285 19.9256C22.7414 21.4899 21.5731 22.3482 21.3661 22.5002C19.9988 23.5048 18.8919 23.5828 18.035 23.6271Z" fill="black"/>
<path fill-rule="evenodd" clip-rule="evenodd" d="M18.0359 14.629C18.248 14.6498 19.0282 14.5805 20.0527 15.3214C22.4693 17.0691 21.3739 21.3754 17.9654 21.3758C14.725 21.3762 13.2186 16.881 16.3675 15.0459C16.9206 14.7236 17.8988 14.6405 18.0359 14.6289V14.629Z" fill="black"/>
</svg>
