<svg width="28" height="30" viewBox="0 0 28 30" fill="none" xmlns="http://www.w3.org/2000/svg">
<g clip-path="url(#clip0_89_1162)">
<path fill-rule="evenodd" clip-rule="evenodd" d="M4.19223 0C5.14324 0.035022 5.1401 0.0709691 15.9348 1.91286C16.3355 1.98126 19.107 2.45412 19.5489 5.51134C19.6581 6.2659 19.5945 10.2549 19.588 10.6673C19.5634 12.2093 18.1234 12.3939 17.4543 11.9631C16.6797 11.4643 16.7965 11.0254 16.7965 8.22244C16.7965 6.13196 17.0285 4.93222 15.4662 4.68694C9.98193 3.82599 10.0054 3.71438 4.52338 2.85099C3.62429 2.70945 2.81787 3.22057 2.80134 4.3237C2.80115 4.33943 2.80115 25.6338 2.80134 25.6674C2.80731 26.7476 3.59052 27.1628 4.19256 27.1669C4.76803 27.1707 9.37977 26.331 9.82928 26.2492C15.7707 25.1673 16.0021 25.4857 16.5615 24.66C16.9743 24.0506 16.7423 22.1527 16.799 19.1923C16.8215 18.0104 18.1353 17.5014 18.9305 18.0278C19.6983 18.536 19.5881 18.7904 19.5881 22.2973C19.5881 23.3956 20.0401 26.6533 16.7722 27.8834C16.1707 28.1097 8.01957 29.3892 5.0477 29.9132C2.27747 30.4018 0.485212 28.4251 0.11577 26.7274C-0.00364012 26.1789 0.00960577 26.1752 0.00960577 7.49557C0.00960577 4.16134 -0.160558 2.87604 0.938393 1.56846C2.30731 -0.0603964 3.89741 0.0247797 4.19223 0Z" fill="black"/>
<path fill-rule="evenodd" clip-rule="evenodd" d="M27.9569 14.6936C28.0431 15.5798 27.8944 15.5815 26.7148 17.1665C23.3016 21.7524 23.3267 21.8821 22.679 22.0092C21.5816 22.2246 20.3208 21.059 21.4001 19.6088C23.4938 16.7954 23.4858 16.7903 23.6806 16.556C23.6886 16.5464 23.8038 16.4077 23.6745 16.3993C23.391 16.381 12.6218 16.4512 12.2549 16.361C10.8203 16.008 10.7441 13.6148 12.7168 13.5888C14.9853 13.559 22.4899 13.5858 23.3397 13.5888C23.6474 13.5899 23.6677 13.6296 23.7147 13.5604C23.8127 13.4159 21.1826 10.359 21.0281 9.68008C20.7163 8.31045 22.4967 7.16893 23.5669 8.59539C23.9079 9.05008 27.7003 14.105 27.8081 14.2962C27.9138 14.4834 27.8919 14.4858 27.9569 14.6936Z" fill="black"/>
</g>
<defs>
<clipPath id="clip0_89_1162">
<rect width="28" height="30" fill="white"/>
</clipPath>
</defs>
</svg>
