<svg width="23" height="27" viewBox="0 0 23 27" fill="none" xmlns="http://www.w3.org/2000/svg">
<path d="M0.726196 10.0974V3.57086C0.726196 1.90722 2.20414 0.558594 4.02731 0.558594H15.0598C15.7319 0.558594 16.3772 0.79904 16.8571 1.22835L20.1847 4.20474L21.3121 5.31017C21.7542 5.74374 22 6.31399 22 6.90624V22.9832C22 24.6469 20.5221 25.9955 18.6989 25.9955H4.02731C2.20414 25.9955 0.726196 24.6469 0.726196 22.9832V21.9791" stroke="black" stroke-width="1.11723" stroke-linecap="round"/>
<path d="M3.57987 17.2331C3.63368 17.1974 3.68257 17.1773 3.72659 17.1728C3.7706 17.1684 3.80974 17.1885 3.84396 17.2331L4.4455 18.0363C4.48463 18.0854 4.4993 18.1256 4.48951 18.1568C4.47975 18.1836 4.44795 18.2149 4.39415 18.2505C4.19854 18.38 3.96867 18.4893 3.70458 18.5785C3.44541 18.6634 3.14952 18.7057 2.81695 18.7057C2.43061 18.7057 2.06628 18.6388 1.72391 18.5049C1.38159 18.371 1.08082 18.1881 0.821609 17.956C0.567313 17.7195 0.36679 17.4451 0.220073 17.1327C0.0733575 16.8203 0 16.4878 0 16.1353C0 15.7783 0.0733575 15.4458 0.220073 15.1379C0.36679 14.83 0.567313 14.56 0.821609 14.3279C1.08082 14.0959 1.38159 13.9151 1.72391 13.7857C2.06628 13.6518 2.43061 13.5849 2.81695 13.5849C3.14952 13.5849 3.44541 13.6317 3.70458 13.7255C3.96867 13.8147 4.20341 13.9241 4.40882 14.0535C4.44795 14.0758 4.46996 14.1048 4.47484 14.1405C4.47975 14.1762 4.47484 14.2052 4.46017 14.2275L3.82195 15.0642C3.79261 15.0999 3.75593 15.1178 3.71192 15.1178C3.67282 15.1133 3.63368 15.0955 3.59454 15.0642C3.47229 14.975 3.35004 14.9125 3.22775 14.8768C3.1055 14.8366 2.96858 14.8166 2.81695 14.8166C2.61155 14.8166 2.42081 14.85 2.24476 14.917C2.07361 14.9839 1.92444 15.0776 1.79727 15.1981C1.67014 15.3142 1.56986 15.4525 1.4965 15.6131C1.42806 15.7738 1.3938 15.9478 1.3938 16.1353C1.3938 16.3227 1.42806 16.499 1.4965 16.6641C1.56986 16.8247 1.67014 16.9653 1.79727 17.0858C1.92444 17.2063 2.07361 17.3022 2.24476 17.3736C2.42081 17.4406 2.61155 17.474 2.81695 17.474C2.97346 17.474 3.11529 17.4495 3.24242 17.4004C3.36959 17.3513 3.48208 17.2956 3.57987 17.2331ZM6.06014 17.0323C6.10416 17.0635 6.15793 17.1059 6.22149 17.1594C6.28509 17.2085 6.35845 17.2598 6.4416 17.3134C6.56386 17.3893 6.68611 17.4495 6.80839 17.4941C6.93552 17.5343 7.06515 17.5544 7.19719 17.5544C7.45149 17.5544 7.62267 17.5075 7.7107 17.4138C7.80361 17.3201 7.85008 17.2108 7.85008 17.0858C7.85008 17.0144 7.82073 16.9519 7.76205 16.8984C7.70336 16.8448 7.63242 16.798 7.54931 16.7578C7.47104 16.7132 7.38546 16.6775 7.29256 16.6507C7.20453 16.6195 7.12625 16.5927 7.05781 16.5704C6.46603 16.3829 6.02346 16.162 5.73003 15.9077C5.44148 15.6533 5.29722 15.3298 5.29722 14.9371C5.29722 14.7273 5.34365 14.5377 5.4366 14.3681C5.52951 14.1985 5.65909 14.0535 5.8254 13.933C5.99654 13.8125 6.20194 13.721 6.4416 13.6585C6.68123 13.5916 6.94777 13.5581 7.24121 13.5581C7.46128 13.5581 7.67402 13.5804 7.87942 13.625C8.0897 13.6697 8.29265 13.7433 8.48829 13.8459C8.65456 13.9352 8.79882 14.0267 8.9211 14.1204C9.04336 14.2141 9.1045 14.2922 9.1045 14.3547C9.1045 14.3948 9.0727 14.4484 9.00913 14.5153L8.44428 15.0642C8.40514 15.0999 8.36358 15.1178 8.31957 15.1178C8.28531 15.1178 8.25355 15.1089 8.2242 15.091C8.19974 15.0732 8.17039 15.0509 8.13617 15.0241L8.09949 14.9973C8.00167 14.9215 7.88184 14.8478 7.74004 14.7764C7.60308 14.7006 7.45637 14.6626 7.29989 14.6626C7.13847 14.6626 6.99913 14.6872 6.88175 14.7362C6.76438 14.7853 6.70569 14.8746 6.70569 15.004C6.70569 15.129 6.77414 15.2249 6.91109 15.2918C7.04802 15.3588 7.25096 15.4324 7.51997 15.5127C7.77914 15.5931 8.0188 15.6756 8.23888 15.7604C8.45895 15.8452 8.64722 15.9478 8.80373 16.0683C8.96512 16.1844 9.08983 16.3249 9.17786 16.49C9.26589 16.6507 9.3099 16.8471 9.3099 17.0791C9.3099 17.3246 9.25364 17.5477 9.14118 17.7485C9.03356 17.9449 8.88443 18.1145 8.6937 18.2572C8.50296 18.3956 8.27798 18.5049 8.0188 18.5852C7.75959 18.6611 7.48083 18.699 7.18252 18.699C6.99179 18.699 6.80348 18.6767 6.61766 18.6321C6.43181 18.5875 6.25084 18.5272 6.07481 18.4514C5.90363 18.3755 5.74225 18.2863 5.59065 18.1836C5.43902 18.081 5.30456 17.9694 5.18718 17.8489L5.17251 17.8422C5.1676 17.8333 5.16272 17.8288 5.15784 17.8288C5.15292 17.8244 5.14805 17.8199 5.14317 17.8154C5.08936 17.7619 5.06247 17.7173 5.06247 17.6816C5.06247 17.6459 5.08936 17.6035 5.14317 17.5544L5.78138 16.9988C5.83028 16.9676 5.87183 16.9519 5.90609 16.9519C5.94519 16.9519 5.99654 16.9787 6.06014 17.0323ZM14.5436 13.8125L12.5776 18.4848C12.5433 18.583 12.47 18.6321 12.3575 18.6321H11.4992C11.3916 18.6321 11.3158 18.583 11.2718 18.4848L9.30583 13.8058C9.26182 13.7076 9.29604 13.6585 9.40853 13.6585L10.5823 13.6652C10.6898 13.6652 10.7607 13.7143 10.795 13.8125L11.9247 16.8114L13.0398 13.8125C13.074 13.7143 13.1473 13.6652 13.2598 13.6652H14.4409C14.5533 13.6652 14.5876 13.7143 14.5436 13.8125Z" fill="black"/>
</svg>
