<svg width="22" height="27" viewBox="0 0 22 27" fill="none" xmlns="http://www.w3.org/2000/svg">
<path d="M21.8768 6.85969L15.3134 0.109687C15.2381 0.039362 15.1402 0.000272956 15.0385 0H4.67236C3.98439 -8.8288e-07 3.32454 0.280772 2.83769 0.78067C2.35083 1.28057 2.07678 1.95873 2.07569 2.66625V11.1923H1.75162C1.28706 11.1923 0.841531 11.3821 0.513038 11.72C0.184545 12.0578 0 12.516 0 12.9937V21.1655C0.00108629 21.6403 0.185247 22.0952 0.512083 22.4306C0.838919 22.7659 1.28174 22.9542 1.74342 22.9542H2.07979V24.3337C2.08088 25.0405 2.35437 25.7181 2.84034 26.2178C3.3263 26.7176 3.9851 26.9989 4.67236 27H19.4073C20.0946 26.9989 20.7534 26.7176 21.2393 26.2178C21.7253 25.7181 21.9988 25.0405 21.9999 24.3337V7.17188C22.0013 7.11394 21.9911 7.05631 21.9699 7.0026C21.9488 6.94889 21.9171 6.90024 21.8768 6.85969ZM2.07159 13.9556H1.75162C1.5148 13.9395 1.29281 13.8313 1.13064 13.6531C0.968466 13.4749 0.878236 13.2399 0.878236 12.9959C0.878236 12.7518 0.968466 12.5168 1.13064 12.3386C1.29281 12.1604 1.5148 12.0522 1.75162 12.0361H2.07159V13.9556ZM21.1794 24.3337C21.1784 24.8168 20.9913 25.2797 20.6592 25.6212C20.3271 25.9628 19.877 26.1551 19.4073 26.1562H4.67236C4.20198 26.1563 3.75081 25.9644 3.41782 25.6227C3.08483 25.281 2.89721 24.8175 2.89612 24.3337V22.9542H15.8507C15.9595 22.9542 16.0639 22.9098 16.1408 22.8307C16.2177 22.7515 16.261 22.6442 16.261 22.5323V14.3733C16.261 14.2614 16.2177 14.1541 16.1408 14.075C16.0639 13.9959 15.9595 13.9514 15.8507 13.9514H2.89612V2.66625C2.89721 2.18251 3.08483 1.71896 3.41782 1.37729C3.75081 1.03563 4.20198 0.843749 4.67236 0.84375H14.6283V4.91062C14.6267 5.26202 14.6925 5.6103 14.822 5.93548C14.9515 6.26066 15.1422 6.55636 15.383 6.80562C15.6239 7.05489 15.9102 7.25281 16.2256 7.38806C16.5409 7.5233 16.8792 7.5932 17.2209 7.59375H21.1794V24.3337ZM3.92576 16.4995H4.81593L5.57483 17.7652L6.31732 16.4995H7.19928L6.02607 18.3853L7.30594 20.385H6.39526L5.57483 19.0392L4.7544 20.385H3.8027L5.09488 18.3558L3.92576 16.4995ZM10.3867 19.7311V20.385H7.71616V16.5333H8.47916V19.7311H10.3867ZM12.9628 19.0223C12.8896 18.9413 12.7958 18.8829 12.6921 18.8536C12.6018 18.8198 12.3967 18.765 12.0809 18.6848C11.7686 18.625 11.4739 18.4922 11.2194 18.2967C11.0351 18.1364 10.9144 17.9121 10.8804 17.6663C10.8463 17.4205 10.9013 17.1704 11.0348 16.9636C11.1507 16.7865 11.3148 16.6486 11.5065 16.567C11.7443 16.4789 11.9966 16.4401 12.249 16.4531C12.6317 16.4249 13.0116 16.5386 13.3197 16.7737C13.4363 16.8796 13.5301 17.0093 13.5951 17.1546C13.6601 17.2999 13.6948 17.4576 13.6971 17.6175L12.9341 17.6512C12.9162 17.4893 12.8419 17.3394 12.7249 17.2294C12.5804 17.1239 12.4055 17.0718 12.2285 17.0817C12.0444 17.0703 11.8616 17.1207 11.7076 17.2252C11.6701 17.2521 11.6396 17.2882 11.6189 17.3301C11.5981 17.372 11.5877 17.4186 11.5886 17.4656C11.5889 17.5114 11.5994 17.5565 11.6193 17.5975C11.6392 17.6384 11.668 17.6741 11.7035 17.7019C11.9185 17.8312 12.1549 17.9184 12.4008 17.9592C12.6838 18.0193 12.9591 18.1127 13.2213 18.2377C13.3896 18.3303 13.5311 18.4671 13.6315 18.6342C13.7354 18.8214 13.7865 19.0347 13.7791 19.2502C13.7809 19.4735 13.7181 19.6922 13.5986 19.8787C13.477 20.0714 13.2988 20.2192 13.09 20.3006C12.8287 20.4049 12.5496 20.4537 12.2695 20.4441C11.875 20.4701 11.4846 20.3487 11.1702 20.1023C10.8981 19.8454 10.7334 19.4901 10.7107 19.1109L11.4532 19.0392C11.4778 19.2528 11.5735 19.451 11.724 19.6003C11.8809 19.7283 12.0778 19.7928 12.2778 19.7817C12.4749 19.7962 12.6707 19.7395 12.8315 19.6214C12.8887 19.5777 12.9354 19.5212 12.9681 19.4561C13.0009 19.3911 13.0187 19.3192 13.0202 19.2459C13.027 19.1668 13.0066 19.0877 12.9628 19.0223Z" fill="#1AB756"/>
</svg>
