<svg width="20" height="24" viewBox="0 0 20 24" fill="none" xmlns="http://www.w3.org/2000/svg">
<path d="M14.4444 16.5818L13.4444 15.6C13.2407 15.4 12.9815 15.3 12.6667 15.3C12.3519 15.3 12.0926 15.4 11.8889 15.6C11.6852 15.8 11.5833 16.0545 11.5833 16.3636C11.5833 16.6727 11.6852 16.9273 11.8889 17.1273L14.7778 19.9636C15 20.1818 15.2593 20.2909 15.5556 20.2909C15.8519 20.2909 16.1111 20.1818 16.3333 19.9636L19.2222 17.1273C19.4259 16.9273 19.5278 16.6727 19.5278 16.3636C19.5278 16.0545 19.4259 15.8 19.2222 15.6C19.0185 15.4 18.7593 15.3 18.4444 15.3C18.1296 15.3 17.8704 15.4 17.6667 15.6L16.6667 16.5818V13.1182C16.6667 12.8091 16.5602 12.55 16.3472 12.3409C16.1343 12.1318 15.8704 12.0273 15.5556 12.0273C15.2407 12.0273 14.9769 12.1318 14.7639 12.3409C14.5509 12.55 14.4444 12.8091 14.4444 13.1182V16.5818ZM12.2222 21.8182H18.8889C19.2037 21.8182 19.4676 21.9227 19.6806 22.1318C19.8935 22.3409 20 22.6 20 22.9091C20 23.2182 19.8935 23.4773 19.6806 23.6864C19.4676 23.8955 19.2037 24 18.8889 24H12.2222C11.9074 24 11.6435 23.8955 11.4306 23.6864C11.2176 23.4773 11.1111 23.2182 11.1111 22.9091C11.1111 22.6 11.2176 22.3409 11.4306 22.1318C11.6435 21.9227 11.9074 21.8182 12.2222 21.8182ZM2.22222 19.6364C1.61111 19.6364 1.08796 19.4227 0.652778 18.9955C0.217593 18.5682 0 18.0545 0 17.4545V2.18182C0 1.58182 0.217593 1.06818 0.652778 0.640909C1.08796 0.213636 1.61111 0 2.22222 0H9.08333C9.37963 0 9.66204 0.0545455 9.93056 0.163636C10.1991 0.272727 10.4352 0.427273 10.6389 0.627273L16.0278 5.91818C16.2315 6.11818 16.3889 6.35 16.5 6.61364C16.6111 6.87727 16.6667 7.15455 16.6667 7.44545V8.75455C16.6667 9.06364 16.5602 9.32273 16.3472 9.53182C16.1343 9.74091 15.8704 9.84545 15.5556 9.84545C15.2407 9.84545 14.9769 9.74091 14.7639 9.53182C14.5509 9.32273 14.4444 9.06364 14.4444 8.75455V7.63636H10.5556C10.0926 7.63636 9.69907 7.47727 9.375 7.15909C9.05093 6.84091 8.88889 6.45455 8.88889 6V2.18182H2.22222V17.4545H7.77778C8.09259 17.4545 8.35648 17.5591 8.56944 17.7682C8.78241 17.9773 8.88889 18.2364 8.88889 18.5455C8.88889 18.8545 8.78241 19.1136 8.56944 19.3227C8.35648 19.5318 8.09259 19.6364 7.77778 19.6364H2.22222Z" fill="black"/>
</svg>
