<svg width="22" height="26" viewBox="0 0 22 26" fill="none" xmlns="http://www.w3.org/2000/svg">
<path d="M18.8114 0H6.19311C6.13544 0 6.07941 0.00636903 6.02484 0.0169554C6.02321 0.0172997 6.02149 0.0171275 6.01985 0.0174718C5.94308 0.0327058 5.87164 0.0606779 5.80348 0.0945026C5.78755 0.102421 5.77258 0.110855 5.75709 0.119634C5.68883 0.158881 5.62428 0.203723 5.56911 0.259064L0.259065 5.56946C0.203551 5.6248 0.158537 5.68961 0.11929 5.75812C0.110597 5.77335 0.102249 5.78815 0.0945026 5.80373C0.0606779 5.87207 0.0327058 5.94351 0.0173857 6.02045C0.0169554 6.02269 0.0172136 6.02493 0.0167833 6.02716C0.00645509 6.08113 0 6.13647 0 6.19345V12.7552H1.76267V7.07478H4.70929C6.0134 7.07478 7.07444 6.01374 7.07444 4.70929V1.76267H18.8114C19.5977 1.76267 20.2373 2.35172 20.2373 3.07538V22.4352C20.2373 23.1588 19.5977 23.7475 18.8114 23.7475H2.99654C2.31626 23.7475 1.76267 23.1939 1.76267 22.5136V22.4134H0V22.5136C0 24.1658 1.34438 25.5102 2.99654 25.5102H18.8114C20.5696 25.5102 22 24.1307 22 22.4352V3.07538C22 1.3795 20.5696 0 18.8114 0Z" fill="#F40000"/>
<path d="M2.2929 18.4298H1.44531V20.4455H0.0775146V14.8301H2.2929C3.66896 14.8301 4.35681 15.6061 4.35681 16.6378C4.35681 17.566 3.72473 18.4298 2.2929 18.4298ZM2.18893 17.3419C2.73288 17.3419 2.96492 17.0699 2.96492 16.6378C2.96492 16.2061 2.73288 15.9342 2.18893 15.9342H1.44531V17.3419H2.18893ZM10.1144 17.638C10.1144 19.3015 8.96282 20.4455 7.17089 20.4455H5.06739V14.8301H7.17089C8.96282 14.8301 10.1144 15.9662 10.1144 17.638ZM7.0831 19.2615C8.11488 19.2615 8.72287 18.6697 8.72287 17.638C8.72287 16.6058 8.11488 15.9982 7.0831 15.9982H6.43518V19.2615H7.0831ZM10.8811 14.8301H14.5366V15.9262H12.2489V17.1098H13.9606V18.1736H12.2489V20.4455H10.8811V14.8301Z" fill="#F40000"/>
</svg>
