<svg width="23" height="30" viewBox="0 0 23 30" fill="none" xmlns="http://www.w3.org/2000/svg">
<path d="M15.7537 0.581543V5.89189C15.7537 6.52037 16.2632 7.02982 16.8917 7.02982H22.202" stroke="#1D07E3" stroke-width="0.404094"/>
<path d="M0.202026 11.0125V3.61594C0.202026 1.73054 1.73042 0.202148 3.61582 0.202148H15.0249C15.7199 0.202148 16.3872 0.474645 16.8836 0.961187L20.3248 4.33432L21.4906 5.5871C21.9478 6.07846 22.202 6.72473 22.202 7.39592V25.6159C22.202 27.5013 20.6736 29.0297 18.7882 29.0297H3.61582C1.73042 29.0297 0.202026 27.5013 0.202026 25.6159V24.478" stroke="#1D07E3" stroke-width="0.404094" stroke-linecap="round"/>
<path d="M9.28674 13.7847C9.64831 13.7847 9.98724 13.8537 10.3024 13.9907C10.6227 14.1281 10.9016 14.3156 11.1393 14.5532C11.377 14.7909 11.5644 15.0697 11.7018 15.3901C11.8388 15.7052 11.9078 16.0463 11.9078 16.4126C11.9078 16.774 11.8388 17.1143 11.7018 17.4341C11.5988 17.6709 11.4677 17.8857 11.3082 18.0786L11.1393 18.2642C10.9016 18.4972 10.6228 18.6824 10.3024 18.8198C9.98724 18.9568 9.64831 19.0259 9.28674 19.0259C8.92531 19.0258 8.58502 18.9569 8.26526 18.8198C7.94463 18.6824 7.66511 18.4973 7.42737 18.2642C7.19446 18.0265 7.00994 17.7497 6.87268 17.4341C6.73563 17.1143 6.66667 16.7741 6.66663 16.4126C6.66663 16.0463 6.73472 15.7052 6.8717 15.3901H6.87268C7.01007 15.0697 7.19527 14.7909 7.42834 14.5532C7.66602 14.3156 7.94485 14.128 8.26526 13.9907C8.58501 13.8537 8.92532 13.7847 9.28674 13.7847ZM15.2604 13.7778C15.5719 13.7779 15.8478 13.826 16.0885 13.9214H16.0895C16.3373 14.0132 16.5568 14.1258 16.7487 14.2583L16.7506 14.2593C16.7651 14.2684 16.7756 14.2781 16.7828 14.2886L16.7955 14.3228C16.7993 14.3532 16.7952 14.3734 16.7877 14.3872L16.1832 15.2563C16.1619 15.2847 16.1381 15.2951 16.11 15.2954C16.0833 15.2912 16.0538 15.2783 16.0221 15.2505L16.0211 15.2495L15.9313 15.1831C15.8421 15.1225 15.7523 15.0774 15.6617 15.0483H15.6627C15.5422 15.0049 15.4077 14.9839 15.2604 14.9839C15.0612 14.9839 14.8755 15.0198 14.7037 15.0913H14.7028C14.5363 15.1627 14.3911 15.2626 14.2672 15.3911C14.174 15.4843 14.0953 15.5908 14.0319 15.7104L13.9733 15.8345V15.8354C13.9066 16.0069 13.8737 16.1923 13.8737 16.3911C13.8737 16.5901 13.9066 16.7785 13.9733 16.9546V16.9556C14.0445 17.1265 14.1424 17.2762 14.2662 17.4048C14.3901 17.5334 14.5354 17.6363 14.7018 17.7124H14.7037C14.8755 17.7839 15.0612 17.8198 15.2604 17.8198C15.413 17.8198 15.5527 17.7939 15.6783 17.7407C15.8007 17.689 15.9094 17.6295 16.0045 17.563L16.0055 17.562C16.0535 17.5272 16.0937 17.5101 16.1266 17.5063C16.1384 17.505 16.151 17.5071 16.1637 17.5142L16.2037 17.5532L16.774 18.3882L16.775 18.3892C16.8096 18.4369 16.8148 18.4657 16.8112 18.481C16.8057 18.4968 16.7842 18.5235 16.734 18.5601C16.5973 18.6591 16.4425 18.7473 16.2692 18.8237L16.0895 18.896C15.8485 18.9824 15.5722 19.0259 15.2604 19.0259C14.8988 19.0259 14.5578 18.9569 14.2379 18.8198C13.9975 18.7168 13.779 18.5858 13.5826 18.4263L13.3942 18.2573C13.1565 18.015 12.969 17.7339 12.8317 17.4136C12.6946 17.0937 12.6256 16.7527 12.6256 16.3911C12.6256 16.025 12.6947 15.6846 12.8317 15.3696C12.969 15.0538 13.1564 14.7773 13.3942 14.5396C13.5758 14.3614 13.7791 14.2125 14.0045 14.0933L14.2379 13.9839C14.5578 13.8468 14.8988 13.7778 15.2604 13.7778ZM1.69983 13.8608H3.50842C3.82762 13.8609 4.13767 13.9277 4.43909 14.0601H4.44006C4.74657 14.1928 5.01866 14.3735 5.25647 14.6021C5.49407 14.8305 5.68392 15.1005 5.82581 15.4116V15.4126C5.97183 15.7229 6.04553 16.054 6.04553 16.4058C6.04547 16.7391 5.97876 17.0588 5.84631 17.3647C5.71358 17.6713 5.53298 17.9433 5.30432 18.1812C5.13281 18.3561 4.93844 18.5058 4.72034 18.6294L4.49475 18.7437C4.18908 18.8805 3.86052 18.9497 3.50842 18.9497H1.69983C1.65729 18.9497 1.63184 18.9381 1.61682 18.9224C1.60152 18.9063 1.59048 18.8791 1.59045 18.8335V13.9771C1.59049 13.9315 1.60151 13.9042 1.61682 13.8882C1.63185 13.8724 1.6573 13.8608 1.69983 13.8608ZM9.28674 14.9907C9.09175 14.9908 8.91018 15.0285 8.7428 15.105C8.57634 15.1764 8.43343 15.277 8.31409 15.4058C8.19485 15.5345 8.10134 15.6849 8.03479 15.856C7.96808 16.0275 7.93518 16.2113 7.93518 16.4058C7.93523 16.6046 7.9681 16.79 8.03479 16.9614C8.08472 17.0898 8.14954 17.2064 8.22913 17.311L8.31409 17.4116C8.43347 17.5358 8.5765 17.6364 8.7428 17.7124H8.74377C8.91098 17.7841 9.09206 17.8198 9.28674 17.8198C9.48155 17.8198 9.66339 17.7841 9.83069 17.7124H9.83167C9.95621 17.6555 10.0674 17.5845 10.1656 17.5005L10.2604 17.4116C10.3796 17.2828 10.4722 17.1325 10.5387 16.9614C10.6054 16.7899 10.6392 16.6046 10.6393 16.4058C10.6393 16.2113 10.6054 16.0275 10.5387 15.856C10.4722 15.685 10.3796 15.5345 10.2604 15.4058C10.1409 15.2767 9.99745 15.1765 9.83069 15.105H9.83167C9.66418 15.0284 9.48188 14.9907 9.28674 14.9907ZM2.85901 17.7925H3.38342C3.58249 17.7924 3.76598 17.7567 3.93323 17.6851L3.9342 17.6841C4.10483 17.6082 4.25266 17.5082 4.37659 17.3843C4.50047 17.2603 4.59603 17.1151 4.66272 16.9487C4.73416 16.7773 4.77008 16.5959 4.77014 16.4058C4.77014 16.2631 4.74984 16.1263 4.70959 15.9966L4.66272 15.8687C4.59608 15.6978 4.50055 15.5503 4.37659 15.4263C4.25236 15.3021 4.10342 15.2036 3.93225 15.1323C3.76526 15.0564 3.58215 15.0191 3.38342 15.019H2.85901V17.7925Z" fill="#1D07E3" stroke="#1D07E3" stroke-width="0.0741169"/>
</svg>
