<?xml version="1.0" encoding="UTF-8" standalone="no"?><!DOCTYPE svg PUBLIC "-//W3C//DTD SVG 1.1//EN" "http://www.w3.org/Graphics/SVG/1.1/DTD/svg11.dtd"><svg width="100%" height="100%" viewBox="0 0 432 327" version="1.1" xmlns="http://www.w3.org/2000/svg" xmlns:xlink="http://www.w3.org/1999/xlink" xml:space="preserve" xmlns:serif="http://www.serif.com/" style="fill-rule:evenodd;clip-rule:evenodd;stroke-linejoin:round;stroke-miterlimit:2;"><path d="M289.307,326.689c-3.112,0 -6.084,-0.628 -8.304,-1.91l-277.694,-160.326c-4.901,-2.83 -4.286,-7.772 1.373,-11.04l24.281,-14.024l252.04,145.516c2.22,1.282 5.192,1.91 8.304,1.91c3.758,0 7.721,-0.916 10.817,-2.703l102.411,-59.151l25.653,14.811c4.902,2.83 4.287,7.772 -1.372,11.039l-126.692,73.175c-3.095,1.787 -7.059,2.703 -10.817,2.703Z" style="fill:url(#_Linear1);"/><path d="M289.307,286.815c-3.112,0 -6.084,-0.628 -8.304,-1.91l-252.04,-145.516l-25.653,-14.81c-2.231,-1.288 -3.307,-3.015 -3.297,-4.821l-0.012,-0.002l0.001,-13.264c0.048,1.753 1.137,3.42 3.307,4.673l114.238,65.955l123.804,71.478l39.652,22.893c2.22,1.282 5.192,1.91 8.305,1.91c3.757,0 7.721,-0.915 10.816,-2.702l126.692,-73.175c3.092,-1.786 4.679,-4.073 4.681,-6.241l0,13.312l-0.007,-0.001c0.049,2.199 -1.533,4.529 -4.674,6.343l-24.281,14.024l-102.411,59.151c-3.096,1.787 -7.059,2.703 -10.817,2.703Z" style="fill:url(#_Linear2);"/><path d="M289.308,273.401c-3.113,0 -6.085,-0.628 -8.305,-1.91l-39.652,-22.893c3.093,-1.464 6.113,-3.035 9.038,-4.706l-5.251,-15.758l13.137,11.24c10.118,-5.78 19.107,-12.753 26.098,-20.635c12.09,-13.631 15.943,-27.437 12.476,-38.865l0.033,-0.011l-12.323,-36.985c0,0 -0.011,0.022 -0.033,0.066c-1.274,-3.168 -3.141,-6.125 -5.583,-8.816l-8.87,4.486l-1.963,-5.889c-5.891,-6.49 -15.111,-11.422 -27.408,-13.939c-5.928,-1.214 -12.204,-1.794 -18.662,-1.794c-33.259,0 -71.381,15.373 -92.059,38.686c-6.407,7.223 -10.508,14.497 -12.434,21.442l-114.238,-65.955c-2.17,-1.253 -3.259,-2.92 -3.307,-4.673c-0.06,-2.205 1.527,-4.546 4.68,-6.366l126.692,-73.175c3.096,-1.787 7.059,-2.703 10.817,-2.703c3.112,0 6.084,0.628 8.304,1.91l277.693,160.326c2.222,1.283 3.311,3 3.309,4.799c-0.002,2.168 -1.589,4.455 -4.681,6.241l-126.692,73.175c-3.095,1.787 -7.059,2.702 -10.816,2.702Zm-64.751,-76.366l-11.07,-9.472c0.736,-0.045 1.466,-0.069 2.189,-0.069c2.02,0 3.981,0.182 5.836,0.561c0.019,0.004 0.038,0.008 0.057,0.012l2.988,8.968Z" style="fill:url(#_Linear3);"/><path d="M87.017,60.117l-19.551,11.288c-0.849,0.49 -2.133,0.543 -2.868,0.119l-0.199,-0.115c-0.735,-0.424 -0.643,-1.165 0.206,-1.655l19.551,-11.289c0.849,-0.49 2.133,-0.543 2.869,-0.118l0.198,0.114c0.735,0.425 0.643,1.166 -0.206,1.656Z" style="fill:#0764ae;fill-rule:nonzero;"/><clipPath id="_clip4"><path d="M426.816,197.524l-126.692,73.175c-5.659,3.267 -14.22,3.622 -19.121,0.792l-277.694,-160.326c-4.901,-2.83 -4.286,-7.772 1.373,-11.039l126.692,-73.175c5.66,-3.268 14.22,-3.623 19.121,-0.793l277.693,160.326c4.902,2.83 4.287,7.772 -1.372,11.04Z"/></clipPath><g clip-path="url(#_clip4)"><path d="M185.41,191.941l-2.258,-6.778c-0.048,-0.008 -0.096,-0.016 -0.144,-0.023c-0.336,-0.055 -0.668,-0.115 -0.997,-0.183c-0.1,-0.02 -0.187,-0.05 -0.286,-0.072l-0.008,0.01c-5.989,-1.302 -9.588,-4.461 -10.455,-8.443c0.021,0.052 0.043,0.103 0.065,0.154c-0.817,-3.438 0.395,-7.497 3.917,-11.52c0,-0.001 0,-0.001 0.001,-0.001c0.006,-0.007 0.013,-0.015 0.019,-0.022c0.001,-0.002 0.003,-0.003 0.004,-0.005c0.006,-0.006 0.011,-0.013 0.017,-0.019c0.003,-0.003 0.005,-0.005 0.007,-0.008c0.005,-0.005 0.009,-0.011 0.014,-0.016c0.004,-0.004 0.008,-0.009 0.012,-0.013c0.003,-0.004 0.006,-0.007 0.009,-0.011c0.007,-0.008 0.015,-0.016 0.022,-0.024c6.466,-7.29 18.388,-12.098 28.789,-12.098c2.02,0 3.982,0.181 5.836,0.561c3.23,0.661 5.781,1.855 7.607,3.422c0.348,0.299 0.669,0.612 0.965,0.937l6.481,19.451c-1.504,1.318 -3.189,2.529 -5.001,3.616l-0.016,-0.014c-0.238,0.142 -0.462,0.297 -0.704,0.435l2.263,6.79c-0.019,-0.004 -0.038,-0.008 -0.057,-0.012c-1.855,-0.379 -3.816,-0.561 -5.836,-0.561c-0.723,0 -1.453,0.024 -2.189,0.069l-2.066,-1.768c-6.193,3.538 -13.743,5.644 -20.627,5.644c-1.61,0 -3.183,-0.115 -4.695,-0.354l-0.689,0.856Z" style="fill:url(#_Linear5);"/></g><clipPath id="_clip6"><path d="M426.816,197.524l-126.692,73.175c-5.659,3.267 -14.22,3.622 -19.121,0.792l-277.694,-160.326c-4.901,-2.83 -4.286,-7.772 1.373,-11.039l126.692,-73.175c5.66,-3.268 14.22,-3.623 19.121,-0.793l277.693,160.326c4.902,2.83 4.287,7.772 -1.372,11.04Z"/></clipPath><g clip-path="url(#_clip6)"><clipPath id="_clip7"><path d="M165.642,204.888l-48.095,-27.768c1.926,-6.945 6.027,-14.219 12.434,-21.442c20.678,-23.313 58.8,-38.686 92.059,-38.686c6.458,0 12.734,0.58 18.662,1.794c12.297,2.517 21.517,7.449 27.408,13.939c-0.351,-0.387 -0.752,-0.749 -1.127,-1.125l-48.921,24.738c-1.842,-2.029 -4.725,-3.571 -8.571,-4.359c-1.854,-0.379 -3.817,-0.561 -5.837,-0.561c-10.401,0 -22.322,4.808 -28.788,12.098c-4.063,4.581 -5.135,9.22 -3.604,12.936c0.867,3.982 4.466,7.141 10.455,8.443l-16.075,19.993Zm9.602,-39.802l0.001,-0.001c-0.001,0 -0.001,0 -0.001,0.001Zm0.02,-0.023c0.002,-0.002 0.003,-0.003 0.004,-0.005c-0.001,0.002 -0.003,0.003 -0.004,0.005Zm0.021,-0.024c0.002,-0.003 0.005,-0.005 0.007,-0.008c-0.002,0.003 -0.004,0.005 -0.007,0.008Zm0.021,-0.024c0.004,-0.004 0.008,-0.009 0.012,-0.013c-0.004,0.004 -0.008,0.009 -0.012,0.013Zm0.021,-0.024c0.007,-0.008 0.015,-0.016 0.022,-0.024c-0.007,0.008 -0.015,0.016 -0.022,0.024Zm0.022,-0.024c6.466,-7.29 18.388,-12.098 28.789,-12.098c2.02,0 3.982,0.181 5.836,0.561c3.23,0.661 5.781,1.855 7.607,3.422c-1.826,-1.567 -4.377,-2.761 -7.607,-3.422c-1.854,-0.38 -3.816,-0.561 -5.836,-0.561c-10.401,0 -22.323,4.808 -28.789,12.098Z"/></clipPath><g clip-path="url(#_clip7)"><rect x="117.547" y="116.992" width="150.563" height="87.896" style="fill:#808080;fill-opacity:0;"/></g></g><g><clipPath id="_clip8"><path d="M426.816,197.524l-126.692,73.175c-5.659,3.267 -14.22,3.622 -19.121,0.792l-277.694,-160.326c-4.901,-2.83 -4.286,-7.772 1.373,-11.039l126.692,-73.175c5.66,-3.268 14.22,-3.623 19.121,-0.793l277.693,160.326c4.902,2.83 4.287,7.772 -1.372,11.04Z"/></clipPath><g clip-path="url(#_clip8)"><path d="M172.033,208.577l-5.265,-3.039l16.384,-20.375l2.258,6.778l-13.377,16.636Z" style="fill:url(#_Linear9);"/><path d="M225.027,177.24l-6.481,-19.451l49.564,-25.064l1.963,5.889l-40.695,20.578c0.006,0.007 0.012,0.014 0.018,0.021c0.003,0.003 0.006,0.006 0.009,0.009c0.003,0.004 0.006,0.007 0.009,0.01c0.004,0.005 0.008,0.009 0.012,0.014c0.001,0 0.001,0.001 0.002,0.002c0.673,0.753 1.2,1.573 1.584,2.446c-0.001,-0.007 -0.003,-0.014 -0.005,-0.021c1.661,3.749 0.6,8.484 -3.539,13.152c-0.745,0.838 -1.562,1.645 -2.441,2.415Z" style="fill:url(#_Linear10);"/><path d="M258.275,239.374l-11.538,-34.626c10.119,-5.78 19.107,-12.752 26.099,-20.635c0.014,-0.016 0.028,-0.032 0.042,-0.048c0.006,-0.007 0.011,-0.012 0.017,-0.018c0.008,-0.01 0.017,-0.02 0.026,-0.03c0.006,-0.007 0.012,-0.014 0.019,-0.022c0.008,-0.009 0.015,-0.017 0.023,-0.026c0.029,-0.032 0.057,-0.064 0.086,-0.097c0.004,-0.004 0.007,-0.008 0.011,-0.013c0.01,-0.011 0.02,-0.023 0.03,-0.034c0.002,-0.002 0.004,-0.005 0.007,-0.008c12.698,-14.461 16.161,-29.107 11.429,-40.873c0.022,-0.044 0.033,-0.066 0.033,-0.066l12.323,36.985l-0.033,0.011c3.467,11.428 -0.386,25.234 -12.476,38.865c-6.991,7.882 -15.98,14.855 -26.098,20.635Z" style="fill:url(#_Linear11);"/><path d="M258.275,239.374l-13.137,-11.24l-6.286,-18.868l-14.295,-12.231l-2.988,-8.968l-2.263,-6.79l27.431,23.471l11.538,34.626Z" style="fill:url(#_Linear12);"/></g></g><clipPath id="_clip13"><path d="M426.816,197.524l-126.692,73.175c-5.659,3.267 -14.22,3.622 -19.121,0.792l-277.694,-160.326c-4.901,-2.83 -4.286,-7.772 1.373,-11.039l126.692,-73.175c5.66,-3.268 14.22,-3.623 19.121,-0.793l277.693,160.326c4.902,2.83 4.287,7.772 -1.372,11.04Z"/></clipPath><g clip-path="url(#_clip13)"><clipPath id="_clip14"><path d="M246.254,203.298l-26.228,-22.442c1.812,-1.087 3.497,-2.298 5.001,-3.616c0.879,-0.77 1.696,-1.577 2.441,-2.415c4.139,-4.668 5.2,-9.403 3.539,-13.152c-0.235,-0.958 -0.631,-1.864 -1.181,-2.707l-0.448,0.226l40.695,-20.578l8.87,-4.486c2.442,2.691 4.309,5.648 5.583,8.816c4.732,11.766 1.269,26.412 -11.429,40.873c12.355,-14.071 15.937,-28.308 11.762,-39.906c3.407,11.407 -0.456,25.166 -12.506,38.752c-6.992,7.882 -15.981,14.855 -26.099,20.635Zm26.624,-19.233c0.006,-0.007 0.011,-0.011 0.017,-0.018c-0.006,0.006 -0.011,0.011 -0.017,0.018Zm0.043,-0.048c0.006,-0.006 0.013,-0.015 0.019,-0.022c-0.007,0.008 -0.013,0.015 -0.019,0.022Zm0.042,-0.048c0.029,-0.032 0.057,-0.064 0.086,-0.097c-0.029,0.033 -0.057,0.065 -0.086,0.097Zm0.097,-0.11c0.01,-0.011 0.02,-0.023 0.03,-0.034c-0.01,0.011 -0.02,0.023 -0.03,0.034Zm-43.632,-24.611c-0.001,-0.001 -0.001,-0.002 -0.002,-0.002c0,0 0.001,0.001 0.002,0.002Zm-0.014,-0.016c-0.003,-0.003 -0.006,-0.006 -0.009,-0.01c0.003,0.004 0.006,0.007 0.009,0.01Zm-0.018,-0.019c-0.006,-0.007 -0.012,-0.014 -0.018,-0.021c0.006,0.007 0.012,0.014 0.018,0.021Z"/></clipPath><g clip-path="url(#_clip14)"><rect x="220.026" y="134.128" width="66.525" height="69.17" style="fill:#808080;fill-opacity:0;"/></g></g><clipPath id="_clip15"><path d="M426.816,197.524l-126.692,73.175c-5.659,3.267 -14.22,3.622 -19.121,0.792l-277.694,-160.326c-4.901,-2.83 -4.286,-7.772 1.373,-11.039l126.692,-73.175c5.66,-3.268 14.22,-3.623 19.121,-0.793l277.693,160.326c4.902,2.83 4.287,7.772 -1.372,11.04Z"/></clipPath><g clip-path="url(#_clip15)"><clipPath id="_clip16"><path d="M241.351,248.598l-42.008,-24.253c13.805,-3.007 27.458,-8.195 39.509,-15.079l6.286,18.868l5.251,15.758c-2.925,1.671 -5.945,3.242 -9.038,4.706Z"/></clipPath><g clip-path="url(#_clip16)"><rect x="199.343" y="209.266" width="51.046" height="39.332" style="fill:#808080;fill-opacity:0;"/></g></g><clipPath id="_clip17"><path d="M426.816,197.524l-126.692,73.175c-5.659,3.267 -14.22,3.622 -19.121,0.792l-277.694,-160.326c-4.901,-2.83 -4.286,-7.772 1.373,-11.039l126.692,-73.175c5.66,-3.268 14.22,-3.623 19.121,-0.793l277.693,160.326c4.902,2.83 4.287,7.772 -1.372,11.04Z"/></clipPath><g clip-path="url(#_clip17)"><clipPath id="_clip18"><path d="M197.352,223.195l-25.319,-14.618l13.377,-16.636l0.689,-0.856c1.512,0.239 3.085,0.354 4.695,0.354c6.884,0 14.434,-2.106 20.627,-5.644l2.066,1.768l11.07,9.472l14.295,12.231l-1.224,-1.047c-12.311,6.926 -26.245,12.086 -40.276,14.976Z"/></clipPath><g clip-path="url(#_clip18)"><rect x="172.033" y="185.795" width="66.819" height="37.4" style="fill:#808080;fill-opacity:0;"/></g></g><g><clipPath id="_clip19"><path d="M426.816,197.524l-126.692,73.175c-5.659,3.267 -14.22,3.622 -19.121,0.792l-277.694,-160.326c-4.901,-2.83 -4.286,-7.772 1.373,-11.039l126.692,-73.175c5.66,-3.268 14.22,-3.623 19.121,-0.793l277.693,160.326c4.902,2.83 4.287,7.772 -1.372,11.04Z"/></clipPath><g clip-path="url(#_clip19)"><path d="M171.327,176.606c-0.022,-0.051 -0.044,-0.102 -0.065,-0.154c-1.531,-3.716 -0.459,-8.355 3.604,-12.936c6.466,-7.29 18.387,-12.098 28.788,-12.098c2.02,0 3.983,0.182 5.837,0.561c3.846,0.788 6.729,2.33 8.571,4.359l48.921,-24.738c0.375,0.376 0.776,0.738 1.127,1.125l-49.564,25.064c-0.296,-0.325 -0.617,-0.638 -0.965,-0.937c-1.826,-1.567 -4.377,-2.761 -7.607,-3.422c-1.854,-0.38 -3.816,-0.561 -5.836,-0.561c-10.401,0 -22.323,4.808 -28.789,12.098c-0.007,0.008 -0.015,0.016 -0.022,0.024c-0.003,0.004 -0.006,0.007 -0.009,0.011c-0.004,0.004 -0.008,0.009 -0.012,0.013c-0.005,0.005 -0.009,0.011 -0.014,0.016c-0.002,0.003 -0.005,0.005 -0.007,0.008c-0.006,0.006 -0.011,0.013 -0.017,0.019c-0.001,0.002 -0.002,0.003 -0.004,0.005c-0.006,0.007 -0.013,0.015 -0.019,0.022l-0.001,0.001c-3.522,4.023 -4.734,8.082 -3.917,11.52Z" style="fill:url(#_Linear20);"/><path d="M166.768,205.538l-1.126,-0.65l16.075,-19.993l0.008,-0.01c0.099,0.022 0.186,0.052 0.286,0.072c0.329,0.068 0.661,0.128 0.997,0.183c0.048,0.007 0.096,0.015 0.144,0.023l-16.384,20.375Z" style="fill:url(#_Linear21);"/><path d="M231.012,161.694c-0.384,-0.873 -0.911,-1.693 -1.584,-2.446c-0.001,-0.001 -0.002,-0.002 -0.002,-0.002c-0.004,-0.005 -0.008,-0.009 -0.012,-0.014c-0.003,-0.003 -0.006,-0.006 -0.009,-0.01c-0.003,-0.003 -0.006,-0.006 -0.009,-0.009c-0.006,-0.007 -0.012,-0.014 -0.018,-0.021l0.448,-0.226c0.55,0.843 0.946,1.749 1.181,2.707c0.002,0.007 0.004,0.014 0.005,0.021Z" style="fill:url(#_Linear22);"/><path d="M246.737,204.748l-27.431,-23.471c0.242,-0.138 0.466,-0.293 0.704,-0.435l0.016,0.014l26.228,22.442c10.118,-5.78 19.107,-12.753 26.099,-20.635c12.05,-13.586 15.913,-27.345 12.506,-38.752c4.175,11.598 0.593,25.835 -11.762,39.906c-0.003,0.003 -0.005,0.006 -0.007,0.008c-0.01,0.011 -0.02,0.023 -0.03,0.034c-0.004,0.005 -0.007,0.009 -0.011,0.013c-0.029,0.033 -0.057,0.065 -0.086,0.097c-0.008,0.009 -0.015,0.017 -0.023,0.026c-0.006,0.007 -0.013,0.016 -0.019,0.022c-0.009,0.01 -0.018,0.02 -0.026,0.03c-0.006,0.007 -0.011,0.011 -0.017,0.018c-0.014,0.016 -0.028,0.032 -0.042,0.048c-6.992,7.883 -15.98,14.855 -26.099,20.635Z" style="fill:url(#_Linear23);"/><path d="M199.343,224.345l-1.991,-1.15c14.031,-2.89 27.965,-8.05 40.276,-14.976l1.224,1.047c-12.051,6.884 -25.704,12.072 -39.509,15.079Z" style="fill:url(#_Linear24);"/></g></g><path d="M426.816,195.797l-126.692,73.175c-5.659,3.267 -14.22,3.622 -19.121,0.792l-277.693,-160.326c-1.853,-1.069 -2.914,-2.44 -3.217,-3.909c-0.388,2.096 0.652,4.155 3.217,5.636l277.693,160.326c4.901,2.83 13.462,2.475 19.121,-0.792l126.692,-73.175c3.519,-2.033 5.086,-4.713 4.588,-7.131c-0.354,1.909 -1.892,3.847 -4.588,5.404Z" style="fill:#fff;fill-rule:nonzero;"/><path d="M137.451,58.744l-2.468,1.425l-5.847,-3.375l2.468,-1.425l5.847,3.375Z" style="fill:#fff;fill-rule:nonzero;"/><path d="M141.998,56.119l-2.468,1.425l-5.847,-3.376l2.469,-1.425l5.846,3.376Z" style="fill:#fff;fill-rule:nonzero;"/><path d="M146.545,53.493l-2.468,1.426l-5.847,-3.376l2.469,-1.425l5.846,3.375Z" style="fill:#fff;fill-rule:nonzero;"/><path d="M151.092,50.868l-2.468,1.425l-5.847,-3.375l2.469,-1.425l5.846,3.375Z" style="fill:#fff;fill-rule:nonzero;"/><path d="M184.374,31.162c-6.373,-0.161 -12.099,0.479 -17.151,1.785l-1.787,-17.146l-17.943,29.542c-0.953,1.298 -1.785,2.674 -2.5,4.118l-0.031,0.05l0.002,0.013c-5.026,10.213 -4.016,23.914 4.262,39.124c0.586,1.077 1.206,2.148 1.849,3.213l27.978,-0.647c7.404,-18.94 10.285,-39.134 12.253,-59.581c-2.333,-0.252 -4.647,-0.413 -6.932,-0.471Z" style="fill:#f37220;fill-rule:nonzero;"/><path d="M283.941,92.044c-5.088,-9.349 -12.374,-18.25 -21.045,-26.221l0.26,-8.224l-26.539,-25.109l-23.096,4.122c-7.439,-2.484 -14.924,-4.192 -22.215,-4.979c-1.968,20.447 -4.849,40.641 -12.253,59.581l17.045,-0.394c-0.202,-0.333 -0.395,-0.668 -0.579,-1.005c-5.563,-10.222 -0.641,-18.271 10.992,-17.977c11.633,0.293 25.574,8.817 31.137,19.039c1.876,3.448 2.555,6.647 2.191,9.363l51.108,21.745c1.166,-8.687 -1.006,-18.916 -7.006,-29.941Z" style="fill:#e83324;fill-rule:nonzero;"/><path d="M215.137,59.682c-0.201,-0.333 -0.395,-0.667 -0.578,-1.005c-5.563,-10.221 -0.642,-18.27 10.991,-17.977c11.634,0.294 25.574,8.818 31.137,19.04c1.877,3.447 2.556,6.646 2.191,9.363l51.108,21.744c1.166,-8.687 -1.006,-18.915 -7.006,-29.94c-17.788,-32.687 -62.366,-59.944 -99.567,-60.882c-37.201,-0.938 -52.936,24.799 -35.147,57.486c0.586,1.077 1.205,2.148 1.849,3.213l45.022,-1.042Z" style="fill:url(#_Linear25);"/><path d="M196.098,90.82l19.039,-31.138l-45.022,1.042l-19.04,31.137l45.023,-1.041Z" style="fill:#da2326;fill-rule:nonzero;"/><path d="M239.839,100.24l19.039,-31.137l51.108,21.744l-19.039,31.138l-51.108,-21.745Z" style="fill:#da2326;fill-rule:nonzero;"/><path d="M312.824,109.967c0,0 -32.225,8.216 -32.67,8.113c-0.182,-0.042 -1.542,2.122 -3.075,4.677l-31.332,-13.33c-0.716,5.338 -5.473,8.809 -13.183,8.614c-3.294,-0.083 -6.773,-0.827 -10.194,-2.081l-0.267,36.101c10.94,4.011 22.064,6.39 32.598,6.656c18.213,0.459 31.253,-5.493 37.756,-15.509l0.03,0.018l20.337,-33.259Z" style="fill:#da2326;fill-rule:nonzero;"/><path d="M241.409,84.822l-19.039,31.138l-0.267,36.101l19.039,-31.138l0.267,-36.101Z" style="fill:#dc5326;fill-rule:nonzero;"/><path d="M241.142,120.923c10.94,4.012 22.065,6.391 32.598,6.656c24.652,0.622 39.865,-10.478 42.155,-27.545l-51.108,-21.744c-0.717,5.337 -5.474,8.808 -13.184,8.614c-3.294,-0.083 -6.773,-0.827 -10.194,-2.082l-0.267,36.101Z" style="fill:url(#_Linear26);"/><path d="M167.486,66.794l-19.039,31.137c13.348,22.093 38.694,41.323 65.119,51.012l19.039,-31.137l-65.119,-51.012Z" style="fill:url(#_Linear27);"/><path d="M232.605,117.806l0.267,-36.101c-8.263,-3.03 -16.19,-9.044 -20.364,-15.953l-45.022,1.041c13.348,22.094 38.695,41.324 65.119,51.013Z" style="fill:url(#_Linear28);"/><path d="M259.676,67.798c0.364,-2.716 -0.315,-5.915 -2.191,-9.363c-5.563,-10.222 -19.504,-18.746 -31.137,-19.039c-6.206,-0.157 -10.476,2.076 -12.289,5.73c2.122,-2.868 6.064,-4.563 11.491,-4.426c11.634,0.293 25.574,8.818 31.137,19.04c1.877,3.447 2.556,6.646 2.191,9.363l51.108,21.744c0.07,-0.517 0.088,-1.058 0.134,-1.586l-50.444,-21.463Z" style="fill:#fff;fill-rule:nonzero;"/><path d="M214.43,58.413l-43.518,1.007c-0.643,-1.066 -1.263,-2.136 -1.849,-3.214c-8.709,-16.001 -9.364,-30.327 -3.42,-40.684c-6.785,10.44 -6.458,25.304 2.623,41.989c0.586,1.077 1.205,2.148 1.849,3.213l45.022,-1.042c-0.201,-0.333 -0.395,-0.667 -0.578,-1.005l-0.129,-0.264Z" style="fill:#fff;fill-rule:nonzero;"/><path d="M265.249,78.486l-0.462,-0.196c-0.138,1.028 -0.43,1.985 -0.86,2.862c0.587,-0.801 1.029,-1.694 1.322,-2.666Z" style="fill:#fff;fill-rule:nonzero;"/><path d="M274.538,126.275c-10.534,-0.265 -21.658,-2.645 -32.599,-6.656l0.256,-34.539c-0.262,-0.09 -0.524,-0.162 -0.786,-0.258l-0.267,36.101c10.94,4.012 22.065,6.391 32.598,6.656c18.932,0.478 32.267,-5.975 38.487,-16.717c-6.525,9.957 -19.536,15.871 -37.689,15.413Z" style="fill:#fff;fill-rule:nonzero;"/><path d="M169.098,66.756l-1.612,0.038c13.348,22.093 38.695,41.323 65.119,51.012l0.012,-1.611c-25.631,-9.589 -50.116,-28.101 -63.519,-49.439Z" style="fill:#fff;fill-rule:nonzero;"/><path d="M62.966,99.783l-14.865,8.592l-2.237,-1.292l14.865,-8.592l2.237,1.292Z" style="fill:#fff;fill-rule:nonzero;"/><path d="M70.59,95.377l-5.352,3.093l-2.238,-1.292l5.352,-3.093l2.238,1.292Z" style="fill:#fff;fill-rule:nonzero;"/><path d="M76.498,91.962l-3.637,2.102l-2.238,-1.292l3.637,-2.102l2.238,1.292Z" style="fill:#fff;fill-rule:nonzero;"/><path d="M61.312,106.644l-8.1,4.682l-2.237,-1.292l8.1,-4.682l2.237,1.292Z" style="fill:#fff;fill-rule:nonzero;"/><path d="M73.509,99.594l-9.926,5.737l-2.237,-1.291l9.926,-5.738l2.237,1.292Z" style="fill:#fff;fill-rule:nonzero;"/><path d="M79.417,96.18l-3.637,2.102l-2.237,-1.292l3.637,-2.102l2.237,1.292Z" style="fill:#fff;fill-rule:nonzero;"/><path d="M85.039,92.93l-3.637,2.102l-2.237,-1.292l3.637,-2.102l2.237,1.292Z" style="fill:#fff;fill-rule:nonzero;"/><path d="M64.184,110.889l-5.861,3.387l-2.237,-1.291l5.86,-3.388l2.238,1.292Z" style="fill:#fff;fill-rule:nonzero;"/><path d="M68.458,108.419l-2.003,1.158l-2.238,-1.292l2.003,-1.158l2.238,1.292Z" style="fill:#fff;fill-rule:nonzero;"/><path d="M74.366,105.004l-3.637,2.102l-2.238,-1.292l3.638,-2.102l2.237,1.292Z" style="fill:#fff;fill-rule:nonzero;"/><path d="M82.817,123.739l-4.05,2.341l-2.237,-1.292l4.05,-2.341l2.237,1.292Z" style="fill:#fff;fill-rule:nonzero;"/><path d="M90.441,119.333l-5.352,3.093l-2.238,-1.291l5.352,-3.094l2.238,1.292Z" style="fill:#fff;fill-rule:nonzero;"/><path d="M101.336,113.036l-8.624,4.984l-2.238,-1.292l8.624,-4.984l2.238,1.292Z" style="fill:#fff;fill-rule:nonzero;"/><path d="M86.619,86.112l10.307,-5.957l-2.237,-1.292l-10.308,5.957l2.238,1.292Z" style="fill:#fff;fill-rule:nonzero;"/><path d="M93.937,87.787l8.1,-4.681l-2.237,-1.292l-8.1,4.681l2.237,1.292Z" style="fill:#fff;fill-rule:nonzero;"/><path d="M101.288,89.444l5.86,-3.387l-2.237,-1.292l-5.861,3.387l2.238,1.292Z" style="fill:#fff;fill-rule:nonzero;"/><path d="M103.735,93.934l8.524,-4.927l-2.237,-1.291l-8.525,4.927l2.238,1.291Z" style="fill:#fff;fill-rule:nonzero;"/><path d="M111.51,95.345l5.86,-3.387l-2.237,-1.291l-5.861,3.386l2.238,1.292Z" style="fill:#fff;fill-rule:nonzero;"/><path d="M115.049,99.205l7.432,-4.296l-2.237,-1.292l-7.433,4.296l2.238,1.292Z" style="fill:#fff;fill-rule:nonzero;"/><path d="M123.543,100.201l4.049,-2.341l-2.237,-1.292l-4.05,2.341l2.238,1.292Z" style="fill:#fff;fill-rule:nonzero;"/><path d="M124.856,105.347l7.848,-4.536l-2.238,-1.292l-7.847,4.536l2.237,1.292Z" style="fill:#fff;fill-rule:nonzero;"/><path d="M130.382,108.057l7.432,-4.295l-2.237,-1.292l-7.432,4.296l2.237,1.291Z" style="fill:#fff;fill-rule:nonzero;"/><path d="M85.065,104.725l-21.631,12.502l-2.237,-1.291l21.631,-12.503l2.237,1.292Z" style="fill:#fff;fill-rule:nonzero;"/><path d="M92.689,100.319l-5.353,3.093l-2.237,-1.292l5.352,-3.093l2.238,1.292Z" style="fill:#fff;fill-rule:nonzero;"/><path d="M74.406,116.791l-5.861,3.387l-2.237,-1.292l5.86,-3.387l2.238,1.292Z" style="fill:#fff;fill-rule:nonzero;"/><path d="M88.159,108.842l-11.482,6.636l-2.237,-1.292l11.482,-6.636l2.237,1.292Z" style="fill:#fff;fill-rule:nonzero;"/><path d="M94.067,105.427l-3.636,2.102l-2.238,-1.292l3.637,-2.102l2.237,1.292Z" style="fill:#fff;fill-rule:nonzero;"/><path d="M85.647,116.198l-11.991,6.931l-2.237,-1.292l11.991,-6.93l2.237,1.291Z" style="fill:#fff;fill-rule:nonzero;"/><path d="M96.59,109.874l-8.672,5.012l-2.237,-1.292l8.671,-5.012l2.238,1.292Z" style="fill:#fff;fill-rule:nonzero;"/><path d="M104.721,105.174l-5.86,3.387l-2.238,-1.291l5.861,-3.388l2.237,1.292Z" style="fill:#fff;fill-rule:nonzero;"/><path d="M96.284,121.861l-12.405,7.17l-2.238,-1.292l12.406,-7.17l2.237,1.292Z" style="fill:#fff;fill-rule:nonzero;"/><path d="M110.179,113.83l-11.624,6.718l-2.237,-1.292l11.624,-6.718l2.237,1.292Z" style="fill:#fff;fill-rule:nonzero;"/><path d="M116.087,110.415l-3.637,2.102l-2.237,-1.292l3.636,-2.102l2.238,1.292Z" style="fill:#fff;fill-rule:nonzero;"/><path d="M121.757,107.138l-3.637,2.102l-2.238,-1.292l3.637,-2.102l2.238,1.292Z" style="fill:#fff;fill-rule:nonzero;"/><path d="M96.422,127.686l-7.432,4.296l-2.238,-1.292l7.433,-4.296l2.237,1.292Z" style="fill:#fff;fill-rule:nonzero;"/><path d="M101.854,124.546l-3.161,1.827l-2.237,-1.292l3.161,-1.826l2.237,1.291Z" style="fill:#fff;fill-rule:nonzero;"/><path d="M111.24,119.121l-7.115,4.113l-2.237,-1.292l7.115,-4.112l2.237,1.291Z" style="fill:#fff;fill-rule:nonzero;"/><path d="M131.989,124.301l-12.006,6.939l-2.238,-1.291l12.007,-6.94l2.237,1.292Z" style="fill:#fff;fill-rule:nonzero;"/><path d="M140.213,119.548l-4.73,2.733l-2.237,-1.291l4.729,-2.734l2.238,1.292Z" style="fill:#fff;fill-rule:nonzero;"/><path d="M355.1,184.223l-20.209,11.68l-2.09,-1.206l20.208,-11.68l2.091,1.206Z" style="fill:#fff;fill-rule:nonzero;"/><path d="M362.222,180.107l-5.001,2.89l-2.09,-1.207l5,-2.89l2.091,1.207Z" style="fill:#fff;fill-rule:nonzero;"/><path d="M345.141,195.496l-5.475,3.164l-2.09,-1.207l5.475,-3.164l2.09,1.207Z" style="fill:#fff;fill-rule:nonzero;"/><path d="M357.99,188.069l-10.727,6.201l-2.09,-1.207l10.727,-6.201l2.09,1.207Z" style="fill:#fff;fill-rule:nonzero;"/><path d="M363.51,184.879l-3.398,1.964l-2.09,-1.207l3.397,-1.964l2.091,1.207Z" style="fill:#fff;fill-rule:nonzero;"/><path d="M355.643,194.942l-11.202,6.475l-2.09,-1.207l11.202,-6.475l2.09,1.207Z" style="fill:#fff;fill-rule:nonzero;"/><path d="M365.866,189.034l-8.101,4.682l-2.09,-1.207l8.101,-4.682l2.09,1.207Z" style="fill:#fff;fill-rule:nonzero;"/><path d="M373.463,184.643l-5.475,3.164l-2.09,-1.206l5.475,-3.165l2.09,1.207Z" style="fill:#fff;fill-rule:nonzero;"/><path d="M365.58,200.232l-11.589,6.699l-2.09,-1.207l11.589,-6.699l2.09,1.207Z" style="fill:#fff;fill-rule:nonzero;"/><path d="M378.561,192.729l-10.858,6.277l-2.091,-1.207l10.859,-6.276l2.09,1.206Z" style="fill:#fff;fill-rule:nonzero;"/><path d="M384.081,189.539l-3.398,1.964l-2.09,-1.207l3.398,-1.964l2.09,1.207Z" style="fill:#fff;fill-rule:nonzero;"/><path d="M389.378,186.478l-3.398,1.964l-2.09,-1.207l3.398,-1.964l2.09,1.207Z" style="fill:#fff;fill-rule:nonzero;"/><path d="M365.71,205.674l-6.944,4.014l-2.09,-1.207l6.944,-4.014l2.09,1.207Z" style="fill:#fff;fill-rule:nonzero;"/><path d="M370.784,202.741l-2.953,1.707l-2.09,-1.207l2.953,-1.707l2.09,1.207Z" style="fill:#fff;fill-rule:nonzero;"/><path d="M379.553,197.673l-6.647,3.842l-2.09,-1.207l6.647,-3.842l2.09,1.207Z" style="fill:#fff;fill-rule:nonzero;"/><path d="M283.908,243.797l-0.25,-0.067l-10.909,-6.298c-0.239,-0.138 -0.321,-0.444 -0.182,-0.683c0.138,-0.238 0.444,-0.321 0.682,-0.182l10.659,6.153l55.797,-32.213c0.238,-0.14 0.544,-0.058 0.682,0.183c0.139,0.239 0.057,0.545 -0.182,0.682l-56.047,32.358l-0.25,0.067Z" style="fill:#fff;fill-rule:nonzero;"/><defs><linearGradient id="_Linear1" x1="0" y1="0" x2="1" y2="0" gradientUnits="userSpaceOnUse" gradientTransform="matrix(431.496,0,0,431.496,0.000737,202.111849)"><stop offset="0" style="stop-color:#cdebfa;stop-opacity:1"/><stop offset="1" style="stop-color:#d8f0fd;stop-opacity:1"/></linearGradient><linearGradient id="_Linear2" x1="0" y1="0" x2="1" y2="0" gradientUnits="userSpaceOnUse" gradientTransform="matrix(413.757,0,0,413.757,16.144643,162.237849)"><stop offset="0" style="stop-color:#369ad6;stop-opacity:1"/><stop offset="0.51" style="stop-color:#338fce;stop-opacity:1"/><stop offset="1" style="stop-color:#2173ba;stop-opacity:1"/></linearGradient><linearGradient id="_Linear3" x1="0" y1="0" x2="1" y2="-0.247" gradientUnits="userSpaceOnUse" gradientTransform="matrix(351.166,-81.774297,75.691805,193.921,39.320643,186.852849)"><stop offset="0" style="stop-color:#5ebdeb;stop-opacity:1"/><stop offset="1" style="stop-color:#81d4f7;stop-opacity:1"/></linearGradient><linearGradient id="_Linear5" x1="0" y1="0" x2="1" y2="-0.247" gradientUnits="userSpaceOnUse" gradientTransform="matrix(351.166,-81.774297,75.691805,193.921,39.320643,186.852849)"><stop offset="0" style="stop-color:#a07678;stop-opacity:1"/><stop offset="1" style="stop-color:#b38480;stop-opacity:1"/></linearGradient><linearGradient id="_Linear9" x1="0" y1="0" x2="1" y2="-0.247" gradientUnits="userSpaceOnUse" gradientTransform="matrix(351.166,-81.774297,75.691805,193.921,39.320643,186.852849)"><stop offset="0" style="stop-color:#9a6d78;stop-opacity:1"/><stop offset="1" style="stop-color:#ac7d81;stop-opacity:1"/></linearGradient><linearGradient id="_Linear10" x1="0" y1="0" x2="1" y2="-0.247" gradientUnits="userSpaceOnUse" gradientTransform="matrix(351.166,-81.774297,75.691805,193.921,39.320643,186.852849)"><stop offset="0" style="stop-color:#9a6d78;stop-opacity:1"/><stop offset="1" style="stop-color:#ac7d81;stop-opacity:1"/></linearGradient><linearGradient id="_Linear11" x1="0" y1="0" x2="1" y2="-0.247" gradientUnits="userSpaceOnUse" gradientTransform="matrix(351.166,-81.774297,75.691805,193.921,39.320643,186.852849)"><stop offset="0" style="stop-color:#9a6d78;stop-opacity:1"/><stop offset="1" style="stop-color:#ac7d81;stop-opacity:1"/></linearGradient><linearGradient id="_Linear12" x1="0" y1="0" x2="1" y2="-0.247" gradientUnits="userSpaceOnUse" gradientTransform="matrix(351.166,-81.774297,75.691805,193.921,39.320643,186.852849)"><stop offset="0" style="stop-color:#9b888b;stop-opacity:1"/><stop offset="1" style="stop-color:#ab9592;stop-opacity:1"/></linearGradient><linearGradient id="_Linear20" x1="0" y1="0" x2="1" y2="-0.247" gradientUnits="userSpaceOnUse" gradientTransform="matrix(351.166,-81.774297,75.691805,193.921,39.320643,186.852849)"><stop offset="0" style="stop-color:#addff8;stop-opacity:1"/><stop offset="1" style="stop-color:#bfe8fb;stop-opacity:1"/></linearGradient><linearGradient id="_Linear21" x1="0" y1="0" x2="1" y2="-0.247" gradientUnits="userSpaceOnUse" gradientTransform="matrix(351.166,-81.774297,75.691805,193.921,39.320643,186.852849)"><stop offset="0" style="stop-color:#addff8;stop-opacity:1"/><stop offset="1" style="stop-color:#bfe8fb;stop-opacity:1"/></linearGradient><linearGradient id="_Linear22" x1="0" y1="0" x2="1" y2="-0.247" gradientUnits="userSpaceOnUse" gradientTransform="matrix(351.166,-81.774297,75.691805,193.921,39.320643,186.852849)"><stop offset="0" style="stop-color:#addff8;stop-opacity:1"/><stop offset="1" style="stop-color:#bfe8fb;stop-opacity:1"/></linearGradient><linearGradient id="_Linear23" x1="0" y1="0" x2="1" y2="-0.247" gradientUnits="userSpaceOnUse" gradientTransform="matrix(351.166,-81.774297,75.691805,193.921,39.320643,186.852849)"><stop offset="0" style="stop-color:#addff8;stop-opacity:1"/><stop offset="1" style="stop-color:#bfe8fb;stop-opacity:1"/></linearGradient><linearGradient id="_Linear24" x1="0" y1="0" x2="1" y2="-0.247" gradientUnits="userSpaceOnUse" gradientTransform="matrix(351.166,-81.774297,75.691805,193.921,39.320643,186.852849)"><stop offset="0" style="stop-color:#addff8;stop-opacity:1"/><stop offset="1" style="stop-color:#bfe8fb;stop-opacity:1"/></linearGradient><linearGradient id="_Linear25" x1="0" y1="0" x2="1" y2="0" gradientUnits="userSpaceOnUse" gradientTransform="matrix(138.613,84.755797,-84.755797,138.613,168.394643,10.963849)"><stop offset="0" style="stop-color:#f68b1e;stop-opacity:1"/><stop offset="0.41" style="stop-color:#f68b1e;stop-opacity:1"/><stop offset="0.7" style="stop-color:#f26421;stop-opacity:1"/><stop offset="1" style="stop-color:#f15c22;stop-opacity:1"/></linearGradient><linearGradient id="_Linear26" x1="0" y1="0" x2="1" y2="0" gradientUnits="userSpaceOnUse" gradientTransform="matrix(63.171102,38.6265,-38.6265,63.171102,240.088643,86.980849)"><stop offset="0" style="stop-color:#f68b1e;stop-opacity:1"/><stop offset="0.41" style="stop-color:#f68b1e;stop-opacity:1"/><stop offset="0.7" style="stop-color:#f26421;stop-opacity:1"/><stop offset="1" style="stop-color:#f15c22;stop-opacity:1"/></linearGradient><linearGradient id="_Linear27" x1="0" y1="0" x2="1" y2="0" gradientUnits="userSpaceOnUse" gradientTransform="matrix(93.981906,57.466,-57.466,93.981906,148.712643,83.839849)"><stop offset="0" style="stop-color:#f15c22;stop-opacity:1"/><stop offset="0.36" style="stop-color:#f15c22;stop-opacity:1"/><stop offset="0.66" style="stop-color:#e12f26;stop-opacity:1"/><stop offset="1" style="stop-color:#da2326;stop-opacity:1"/></linearGradient><linearGradient id="_Linear28" x1="0" y1="0" x2="1" y2="0" gradientUnits="userSpaceOnUse" gradientTransform="matrix(70.101398,42.864102,-42.864102,70.101398,170.667643,61.589849)"><stop offset="0" style="stop-color:#f68b1e;stop-opacity:1"/><stop offset="0.41" style="stop-color:#f68b1e;stop-opacity:1"/><stop offset="0.7" style="stop-color:#f26421;stop-opacity:1"/><stop offset="1" style="stop-color:#f15c22;stop-opacity:1"/></linearGradient></defs></svg>